<?xml version="1.0" encoding="UTF-8"?>
<svg width="66px" height="46px" viewBox="0 0 66 46" version="1.1" xmlns="http://www.w3.org/2000/svg" xmlns:xlink="http://www.w3.org/1999/xlink">
    <!-- Generator: Sketch 52.5 (67469) - http://www.bohemiancoding.com/sketch -->
    <title>Shape</title>
    <desc>Created with Sketch.</desc>
    <g id="Page-1" stroke="none" stroke-width="1" fill="none" fill-rule="evenodd">
        <g id="Desktop-Copy" transform="translate(-88.000000, -3052.000000)" fill="#FEF3E2" fill-rule="nonzero">
            <path d="M102.532294,3068.72727 C110.522601,3068.72727 117,3075.28031 117,3083.36364 C117,3091.44696 110.522601,3098 102.532294,3098 C94.5419866,3098 88.064588,3091.44696 88.064588,3083.36364 L88,3081.27273 C88,3065.10582 100.954797,3052 116.935412,3052 L116.935412,3060.36364 C111.41482,3060.36364 106.22453,3062.53857 102.320833,3066.48778 C101.569416,3067.24809 100.883621,3068.05701 100.264998,3068.9067 C101.003755,3068.78909 101.760855,3068.72727 102.532294,3068.72727 Z M139.532294,3068.72727 C147.522472,3068.72727 154,3075.28031 154,3083.36364 C154,3091.44696 147.522472,3098 139.532294,3098 C131.542116,3098 125.064588,3091.44696 125.064588,3083.36364 L125,3081.27273 C125,3065.10582 137.954668,3052 153.935412,3052 L153.935412,3060.36364 C148.414949,3060.36364 143.224401,3062.53857 139.320833,3066.48778 C138.569287,3067.24809 137.883492,3068.05701 137.264869,3068.9067 C138.003626,3068.78909 138.760726,3068.72727 139.532294,3068.72727 Z" id="Shape"></path>
        </g>
    </g>
</svg>