<?xml version="1.0" encoding="UTF-8"?>
<svg width="73px" height="65px" viewBox="0 0 73 65" version="1.1" xmlns="http://www.w3.org/2000/svg" xmlns:xlink="http://www.w3.org/1999/xlink">
    <!-- Generator: Sketch 52.5 (67469) - http://www.bohemiancoding.com/sketch -->
    <title>Group 10</title>
    <desc>Created with Sketch.</desc>
    <g id="Page-1" stroke="none" stroke-width="1" fill="none" fill-rule="evenodd">
        <g id="Desktop-Copy" transform="translate(-511.000000, -3836.000000)">
            <g id="Group-10" transform="translate(511.000000, 3836.000000)">
                <rect id="Rectangle" fill="#777777" x="0" y="0" width="73" height="65"></rect>
                <g id="Group-9" transform="translate(4.000000, 5.000000)" fill="#FFFFFF">
                    <polygon id="Rectangle" points="0.224040389 1.4760071 2.13731872 1.4760071 2.7023029 0.580357143 4.31086159 0.580357143 4.31086159 13.3482143 1.44278193 13.3482143 1.44278193 4.01760478 0.224040389 4.01760478"></polygon>
                    <path d="M5.52365701,2.37241088 L7.16359937,0.639490565 L10.3975082,0.639490565 L12.1396648,2.37241088 L12.1396648,11.6732854 L10.3975082,13.3195905 L7.16359937,13.3195905 L5.52365701,11.6732854 L5.52365701,2.37241088 Z M8.99553571,2.90178571 C8.51475212,2.90178571 8.125,3.29153783 8.125,3.77232143 L8.125,10.15625 C8.125,10.6370336 8.51475212,11.0267857 8.99553571,11.0267857 C9.47631931,11.0267857 9.86607143,10.6370336 9.86607143,10.15625 L9.86607143,3.77232143 C9.86607143,3.29153783 9.47631931,2.90178571 8.99553571,2.90178571 Z" id="Combined-Shape"></path>
                    <path d="M13.3524602,2.31327746 L14.9924025,0.580357143 L18.2263114,0.580357143 L19.9684679,2.31327746 L19.9684679,11.614152 L18.2263114,13.2604571 L14.9924025,13.2604571 L13.3524602,11.614152 L13.3524602,2.31327746 Z M16.8243389,2.84265229 C16.3435553,2.84265229 15.9538032,3.23240441 15.9538032,3.71318801 L15.9538032,10.0971166 C15.9538032,10.5779002 16.3435553,10.9676523 16.8243389,10.9676523 C17.3051225,10.9676523 17.6948746,10.5779002 17.6948746,10.0971166 L17.6948746,3.71318801 C17.6948746,3.23240441 17.3051225,2.84265229 16.8243389,2.84265229 Z" id="Combined-Shape"></path>
                    <path d="M22.0095305,0.619688361 L24.2035428,0.619688361 L24.9329906,1.59216355 L24.9329906,5.07866446 L23.9652699,6.06485451 L22.0095305,6.06485451 L21.3477427,5.07866446 L21.3477427,1.59216355 L22.0095305,0.619688361 Z M23.2142857,1.74107143 C22.8937633,1.74107143 22.6339286,2.00090617 22.6339286,2.32142857 L22.6339286,4.0625 C22.6339286,4.3830224 22.8937633,4.64285714 23.2142857,4.64285714 C23.5348081,4.64285714 23.7946429,4.3830224 23.7946429,4.0625 L23.7946429,2.32142857 C23.7946429,2.00090617 23.5348081,1.74107143 23.2142857,1.74107143 Z" id="Combined-Shape"></path>
                    <path d="M27.9385735,8.125 L30.1325858,8.125 L30.8620336,9.09747519 L30.8620336,12.5839761 L29.8943129,13.5701662 L27.9385735,13.5701662 L27.2767857,12.5839761 L27.2767857,9.09747519 L27.9385735,8.125 Z M29.1433288,9.24638307 C28.8228064,9.24638307 28.5629716,9.50621781 28.5629716,9.82674021 L28.5629716,11.5678116 C28.5629716,11.888334 28.8228064,12.1481688 29.1433288,12.1481688 C29.4638512,12.1481688 29.7236859,11.888334 29.7236859,11.5678116 L29.7236859,9.82674021 C29.7236859,9.50621781 29.4638512,9.24638307 29.1433288,9.24638307 Z" id="Combined-Shape"></path>
                    <polygon id="Path-10" points="22.7420958 13.630244 22.3277569 13.630244 22.3277569 13.2050952 21.585813 13.2050952 21.2824986 13.2050952 20.965322 12.9092841 21.2824986 12.0016301 21.585813 11.4201821 22.3277569 10.7849388 22.7420958 10.5836194 23.040959 10.3555931 23.4306258 9.95359024 23.8651857 9.4409444 24.219752 9.24394901 24.219752 8.84359944 24.452611 8.84359944 24.452611 8.30373796 24.9506316 8.30373796 24.9506316 7.72724984 25.3034174 7.2519937 25.4953257 7.03643064 25.4953257 6.84642992 25.7213172 7.47442426 25.9895311 7.47442426 25.9895311 7.2519937 26.4817016 7.2519937 26.4817016 7.72724984 26.4817016 8.30373796 26.2721158 8.65067368 25.9895311 9.24394901 25.9895311 9.61072416 25.4953257 9.95359024 25.4953257 10.238337 25.9895311 10.238337 25.4953257 10.7849388 24.9506316 10.5836194 24.452611 11.0869814 24.452611 11.7087441 24.219752 12.4843896 23.7235118 12.9092841 23.4306258 12.9092841 23.2417697 13.2050952 23.040959 13.2050952"></polygon>
                    <polygon id="Path-11" points="22.0170663 13.7384707 21.7835714 13.7384707 21.7835714 14.0007073 21.5025128 14.3069467 21.7835714 14.4483663 22.3891828 14.3069467 22.3891828 14.0007073"></polygon>
                    <polygon id="Path-12" points="26.884002 7.46860344 26.884002 7.08348972 27.0586137 6.85928681 27.2788702 6.69100433 27.2788702 6.32122963 27.0814361 6.32122963 27.0814361 6.00797103 26.884002 6.00797103 26.884002 5.89411974 26.5107276 5.89411974 26.3944191 5.65733288 26.1944161 5.51622876 26.1944161 5.19276897 26.884002 4.77474336 26.884002 4.26773652 27.0586137 4.26773652 27.0814361 3.75484725 27.0814361 3.46973502 27.0814361 3.21589652 26.884002 3.21589652 26.884002 2.87657648 26.5107276 2.71626135 26.3944191 2.47143267 26.1944161 2.07991528 26.0502591 1.85869082 25.8890504 1.44960057 25.672666 1.041106 25.2926156 0.840730703 25.2926156 0.419130951 25.7687955 0.717646212 26.1944161 0.717646212 26.5107276 0.840730703 26.5107276 1.24781051 26.884002 1.44960057 27.0586137 1.55034667 27.0814361 2.71626135 27.3691172 2.87657648 27.5103703 2.87657648 27.5103703 2.47143267 27.8486479 2.47143267 27.9690517 2.87657648 27.9690517 3.46973502 28.4806007 3.46973502 28.7835092 3.60369085 29.2783788 3.46973502 29.4969972 3.21589652 29.6649073 3.21589652 29.8783134 3.36563815 29.8783134 3.75484725 29.8783134 3.9438672 29.6649073 4.26773652 29.6649073 4.3914167 29.6649073 4.89216879 28.9755448 4.89216879 28.7835092 4.89216879 28.7835092 5.51622876 28.4806007 6.105143 28.3258702 6.69100433 28.0857326 6.69100433 28.0857326 7.08348972 27.754231 7.08348972 27.754231 7.46860344 27.5103703 7.46860344 27.5103703 7.76436364 27.2788702 7.57448738"></polygon>
                    <path d="M34.5784333,0.726745115 L39.4446398,0.726745115 L41.1625392,2.4247995 L41.1625392,7.03001803 L39.4446398,8.87469051 L37.2152091,8.87469051 L37.2152091,13.3332909 L34.5784333,13.3332909 L34.5784333,0.726745115 Z M37.7232143,2.90178571 C37.4026919,2.90178571 37.1428571,3.16162046 37.1428571,3.48214286 L37.1428571,5.80357143 C37.1428571,6.12409383 37.4026919,6.38392857 37.7232143,6.38392857 C38.0437367,6.38392857 38.3035714,6.12409383 38.3035714,5.80357143 L38.3035714,3.48214286 C38.3035714,3.16162046 38.0437367,2.90178571 37.7232143,2.90178571 Z" id="Combined-Shape"></path>
                    <path d="M42.326933,0.867505 L42.326933,11.4948101 L43.9977268,13.3952581 L47.1836778,13.3952581 L48.7988586,11.4948101 L48.7988586,0.867505 L46.5123196,0.867505 L46.5123196,10.2553179 C46.5123196,10.6570341 46.1866643,10.9826894 45.7849481,10.9826894 L45.7849481,10.9826894 C45.383232,10.9826894 45.0575767,10.6570341 45.0575767,10.2553179 L45.0575767,0.867505 L42.326933,0.867505 Z" id="Path-14"></path>
                    <path d="M50.2294874,0.72474751 L55.1375831,0.72474751 L56.8863093,2.28642881 L56.8863093,5.99036339 L55.6706769,7.0935139 L56.8863093,8.63161543 L56.8863093,13.4622803 L54.0729887,13.4622803 L54.0729887,8.63161543 L52.7665424,8.63161543 L52.7665424,13.4622803 L50.2294874,13.4622803 L50.2294874,0.72474751 Z M53.6830357,2.90178571 C53.2022521,2.90178571 52.8125,3.29153783 52.8125,3.77232143 L52.8125,5.51339286 C52.8125,5.99417646 53.2022521,6.38392857 53.6830357,6.38392857 C54.1638193,6.38392857 54.5535714,5.99417646 54.5535714,5.51339286 L54.5535714,3.77232143 C54.5535714,3.29153783 54.1638193,2.90178571 53.6830357,2.90178571 Z" id="Combined-Shape"></path>
                    <polygon id="Path-16" points="58.2351354 0.662293004 58.2351354 13.4887279 63.4927852 13.4887279 63.4927852 11.1575178 60.8639603 11.1575178 60.8639603 7.94270399 63.4927852 7.94270399 63.4927852 5.5914193 60.8639603 5.5914193 60.8639603 2.96004526 63.4927852 2.96004526 63.4927852 0.662293004"></polygon>
                    <polygon id="Path-17" points="1.57068566 15.4404628 1.57068566 25.5787439 3.5271909 25.5787439 3.5271909 21.140193 4.8998931 25.5787439 6.71973779 25.5787439 6.71973779 15.4404628 4.8998931 15.4404628 4.8998931 19.4488121 3.5271909 15.4404628"></polygon>
                    <polygon id="Path-17" points="52.0617571 15.4404628 52.0617571 25.5787439 54.0182623 25.5787439 54.0182623 21.140193 55.3909645 25.5787439 57.2108092 25.5787439 57.2108092 15.4404628 55.3909645 15.4404628 55.3909645 19.4488121 54.0182623 15.4404628"></polygon>
                    <polygon id="Path-18" points="7.73980751 15.6109734 7.73980751 25.7201029 11.9356492 25.7201029 11.9356492 23.7352626 10.0815412 23.7352626 10.0815412 21.4939225 11.7107292 21.4939225 11.7107292 19.5584515 10.0815412 19.5584515 10.0815412 17.3245581 11.9356492 17.3245581 11.9356492 15.6109734"></polygon>
                    <polygon id="Path-19" points="12.7455545 15.4963759 13.9560685 25.7065884 16.0262709 25.7065884 16.6436633 21.2684508 17.2915324 25.7065884 19.3007815 25.7065884 20.6913971 15.4963759 18.7298624 15.4963759 18.1168829 20.3313988 17.4935606 15.4963759 16.0262709 15.4963759 15.3065542 20.3313988 14.7039174 15.4963759"></polygon>
                    <polygon id="Path-20" points="23.2598096 15.390079 23.2598096 17.3759575 25.3993152 17.3759575 23.2598096 23.7713538 23.2598096 25.756468 27.9857533 25.756468 27.9857533 23.7713538 25.9459907 23.7713538 27.9857533 17.3759575 27.9857533 15.390079"></polygon>
                    <polygon id="Path-21" points="28.7244627 15.4877201 28.7244627 25.5787439 32.9354499 25.5787439 32.9354499 23.6979797 30.8299563 23.6979797 30.8299563 21.4763104 32.9354499 21.4763104 32.9354499 19.529794 30.8299563 19.529794 30.8299563 17.462325 32.9354499 17.462325 32.9354499 15.4877201"></polygon>
                    <path d="M35.2860972,15.5007135 L38.0964793,15.5007135 L39.710137,25.5913762 L37.2278366,25.5913762 L37.2278366,24.1428104 L35.6705471,24.1428104 L35.6705471,25.5913762 L33.5677286,25.5913762 L35.2860972,15.5007135 Z M36.6161945,18.8784075 L36.1379251,22.1112641 L37.1584751,22.1112641 L36.6161945,18.8784075 Z" id="Combined-Shape"></path>
                    <path d="M46.6960472,15.4955357 L49.5064293,15.4955357 L51.120087,25.5861985 L48.6377866,25.5861985 L48.6377866,24.1376326 L47.0804971,24.1376326 L47.0804971,25.5861985 L44.9776786,25.5861985 L46.6960472,15.4955357 Z M48.0261444,18.8732298 L47.547875,22.1060864 L48.5684251,22.1060864 L48.0261444,18.8732298 Z" id="Combined-Shape"></path>
                    <polygon id="Path-24" points="40.4358963 15.4655427 40.4358963 25.5899943 44.2272381 25.5899943 44.2272381 23.801278 42.5517283 23.801278 42.5517283 15.4655427"></polygon>
                    <path d="M58.1058101,15.536473 L62.0607861,15.536473 L63.3960417,16.8808742 L63.3960417,24.1049074 L62.0607861,25.6266676 L58.1058101,25.6266676 L58.1058101,15.536473 Z M60.9375,17.4107143 C60.6169776,17.4107143 60.3571429,17.670549 60.3571429,17.9910714 L60.3571429,23.2142857 C60.3571429,23.5348081 60.6169776,23.7946429 60.9375,23.7946429 C61.2580224,23.7946429 61.5178571,23.5348081 61.5178571,23.2142857 L61.5178571,17.9910714 C61.5178571,17.670549 61.2580224,17.4107143 60.9375,17.4107143 Z" id="Combined-Shape"></path>
                </g>
                <path d="M6.4120738,35.25 L68.6517225,35.25" id="Line-9" stroke="#FFFFFF" stroke-linecap="square"></path>
                <text id="SPECIALIST" font-family="Arial-BoldMT, Arial" font-size="10" font-weight="bold" letter-spacing="0.2666666" fill="#FFFFFF">
                    <tspan x="5.71842481" y="48">SPECIALIST</tspan>
                </text>
                <text id="SILVER-2018" font-family="Arial-BoldMT, Arial" font-size="10" font-weight="bold" letter-spacing="0.2742857" fill="#FFFFFF">
                    <tspan x="5.79123334" y="59">SILVER 2018</tspan>
                </text>
            </g>
        </g>
    </g>
</svg>