<?xml version="1.0" encoding="UTF-8"?>
<svg width="69px" height="69px" viewBox="0 0 69 69" version="1.1" xmlns="http://www.w3.org/2000/svg" xmlns:xlink="http://www.w3.org/1999/xlink">
    <!-- Generator: Sketch 52.5 (67469) - http://www.bohemiancoding.com/sketch -->
    <title>Group 8</title>
    <desc>Created with Sketch.</desc>
    <defs>
        <circle id="path-1" cx="34.5" cy="34.5" r="34.5"></circle>
    </defs>
    <g id="Page-1" stroke="none" stroke-width="1" fill="none" fill-rule="evenodd">
        <g id="Desktop" transform="translate(-798.000000, -1092.000000)">
            <g id="Group-12" transform="translate(741.000000, 1092.000000)">
                <g id="Group-8" transform="translate(57.000000, 0.000000)">
                    <mask id="mask-2" fill="white">
                        <use xlink:href="#path-1"></use>
                    </mask>
                    <use id="Mask" fill="#FEF3E2" xlink:href="#path-1"></use>
                    <polygon id="Rectangle" fill="#F7E5CA" mask="url(#mask-2)" transform="translate(55.431582, 43.149223) rotate(-6.000000) translate(-55.431582, -43.149223) " points="27.7054067 46.7189163 49.6554383 21.2653575 83.1577567 51.4712359 56.2820063 65.0330881"></polygon>
                    <circle id="Oval" fill="#FFE5A4" mask="url(#mask-2)" cx="34.5" cy="34.5" r="9.5"></circle>
                    <path d="M49.9650409,26.7677197 L49.9639658,26.7397046 C49.9486453,26.3939106 49.9384316,26.0280666 49.9322497,25.6210239 C49.9034901,23.6360728 48.3593431,21.9941693 46.4165938,21.8832076 C42.3660636,21.6522204 39.2326143,20.3025526 36.5552864,17.6359012 L36.53244,17.6136539 C35.6591705,16.7954487 34.3418746,16.7954487 33.4683362,17.6136539 L33.4454899,17.6359012 C30.768162,20.3025526 27.6347127,21.6522204 23.5841826,21.8834822 C21.641702,21.9941693 20.0972862,23.6360728 20.0685267,25.6212985 C20.0626134,26.0255946 20.052131,26.3914387 20.0368105,26.7397046 L20.0351978,26.8047985 C19.956445,31.025463 19.8586086,36.2782912 21.5782697,41.0460738 C22.5238414,43.667956 23.9559068,45.9470654 25.8344174,47.8205055 C27.9739144,49.9540464 30.7762254,51.6478602 34.163404,52.8547061 C34.2736042,52.8939822 34.388105,52.9258424 34.5047559,52.9497376 C34.6692499,52.9832459 34.834819,53 35.0003881,53 C35.1659573,53 35.3317951,52.9832459 35.4960204,52.9497376 C35.6126714,52.9258424 35.7279784,52.8937075 35.8387162,52.8541568 C39.2218631,51.6451137 42.0212175,49.9504758 44.1588331,47.8172096 C46.0365374,45.9432203 47.4686027,43.6635615 48.4149808,41.04113 C50.1410925,36.2590651 50.043525,30.9963494 49.9650409,26.7677197 Z M34.9998506,43.9722768 C30.1585666,43.9722768 26.2201182,39.9477178 26.2201182,35.0005836 C26.2201182,30.0534496 30.1585666,26.0288905 34.9998506,26.0288905 C39.8408657,26.0288905 43.779583,30.0534496 43.779583,35.0005836 C43.779583,39.9477178 39.8408657,43.9722768 34.9998506,43.9722768 Z" id="Shape" fill="#F9C747" fill-rule="nonzero" mask="url(#mask-2)"></path>
                    <path d="M34.5001302,28 C30.9158708,28 28,30.9158708 28,34.4998698 C28,38.0841292 30.9158708,41 34.5001302,41 C38.0841292,41 41,38.0841292 41,34.4998698 C41,30.9158708 38.0841292,28 34.5001302,28 Z M38.4135982,32.8248435 L33.7715599,37.6379844 C33.5767037,37.8400228 33.3211335,37.9411765 33.0658227,37.9411765 C32.8105119,37.9411765 32.5552011,37.8402918 32.3603449,37.6379844 L30.5864018,35.7986549 C30.1966896,35.3948471 30.1966896,34.7397692 30.5864018,34.3356925 C30.9758546,33.9316157 31.6076451,33.9316157 31.9973573,34.3356925 L33.0658227,35.4435408 L37.0026427,31.3618811 C37.3920955,30.9578043 38.023886,30.9578043 38.4135982,31.3618811 C38.8033104,31.7656888 38.8033104,32.4207667 38.4135982,32.8248435 Z" id="Shape" fill="#333333" fill-rule="nonzero" mask="url(#mask-2)"></path>
                </g>
            </g>
        </g>
    </g>
</svg>