<?xml version="1.0" encoding="UTF-8"?>
<svg width="421px" height="230px" viewBox="0 0 421 230" version="1.1" xmlns="http://www.w3.org/2000/svg" xmlns:xlink="http://www.w3.org/1999/xlink">
    <!-- Generator: Sketch 52.5 (67469) - http://www.bohemiancoding.com/sketch -->
    <title>Shape</title>
    <desc>Created with Sketch.</desc>
    <defs>
        <radialGradient cx="8.11232363%" cy="3.07230794%" fx="8.11232363%" fy="3.07230794%" r="85.1036491%" gradientTransform="translate(0.081123,0.030723),scale(0.546318,1.000000),translate(-0.081123,-0.030723)" id="radialGradient-1">
            <stop stop-color="#F9C747" offset="0%"></stop>
            <stop stop-color="#F58A1F" offset="100%"></stop>
        </radialGradient>
    </defs>
    <g id="Page-1" stroke="none" stroke-width="1" fill="none" fill-rule="evenodd" fill-opacity="0.23">
        <g id="Desktop-Copy" transform="translate(0.000000, -703.000000)" fill="url(#radialGradient-1)" fill-rule="nonzero">
            <path d="M86.1469313,834.362983 C80.1649555,826.087997 75.0391213,816.898466 70.8576152,807.19106 C68.2083483,801.035322 65.7758743,794.589428 63.6594009,787.992946 C81.6861706,771.949831 105.371568,758.646681 126.771466,751.275222 C140.39259,746.595981 130.449574,725.010499 116.72924,729.851347 C96.6227401,736.936321 74.7892591,748.880508 57.4018411,763.208391 C54.4769901,747.165276 53.6869871,730.743856 56.1231378,715.068028 C57.1005382,708.787414 50.3910211,703.116496 44.6552308,703.002637 C37.6076679,702.863067 33.7164436,708.28423 32.8529516,714.605246 C29.8729863,736.223784 32.7574176,758.767886 38.4785102,780.191761 C24.3356144,794.416803 12.0372877,810.540721 1.74887323,828.133788 C-5.7175747,840.911718 12.6766393,852.227843 20.205552,839.699669 C27.8079536,827.053963 36.5641289,815.326476 46.3601695,804.678813 C47.3155218,807.224115 48.2855718,809.754726 49.2997152,812.237589 C60.9182736,840.772148 80.0363493,868.649264 102.784766,881.063579 C134.318753,898.282013 166.613346,897.264627 202.530931,891.075834 C239.374474,884.721761 279.591148,876.321898 317.224693,883.667646 C348.747657,889.812365 380.351456,904.254106 404.114016,930.316822 C408.324918,934.94097 415.839133,933.07515 418.96975,928.608935 C422.787485,923.169409 420.78492,916.062397 416.574019,911.801863 C377.92633,872.704117 330.606978,858.563551 279.300866,856.157818 C262.629962,855.382842 245.966409,860.032701 229.640901,863.029766 C235.22604,855.136759 239.554521,845.789295 241.917183,835.04981 C248.836139,803.569606 233.572545,771.832299 207.899277,761.140563 C182.813924,750.687562 152.338173,759.796291 138.401049,786.924139 C125.007739,812.979509 133.010655,847.093165 151.893566,867.055236 C154.33339,869.637267 156.894471,871.943832 159.536387,874.01166 C147.017594,874.323854 134.410614,871.804263 122.803079,866.261895 C108.465439,859.400966 96.1156684,848.154626 86.1469313,834.362983 Z M189.309515,861 C171.911467,861 157.187509,843.944634 156.064463,822.158449 C154.937763,800.379661 168.710606,782.048195 187.180484,782.00011 C205.646705,781.948326 220.94499,800.261298 220.999863,822.084472 C221.051076,843.92614 206.714878,861 189.309515,861 Z" id="Shape"></path>
        </g>
    </g>
</svg>