<?xml version="1.0" encoding="UTF-8"?>
<svg width="71px" height="58px" viewBox="0 0 71 58" version="1.1" xmlns="http://www.w3.org/2000/svg" xmlns:xlink="http://www.w3.org/1999/xlink">
    <!-- Generator: Sketch 52.5 (67469) - http://www.bohemiancoding.com/sketch -->
    <title>Group 6</title>
    <desc>Created with Sketch.</desc>
    <g id="Page-1" stroke="none" stroke-width="1" fill="none" fill-rule="evenodd">
        <g id="Desktop-Copy" transform="translate(-104.000000, -3842.000000)" fill="#777777">
            <g id="Group-6" transform="translate(92.000000, 3842.000000)">
                <path d="M45.7074419,3.3140243 C43.4182945,9.12174779 41.9459736,12.1416314 41.290479,12.3736751 C30.6578783,5.86254793 26.6688398,16.6467531 27.474017,20.9608008 C28.1077685,25.803122 33.9331893,31.7440519 41.290479,26.0849328 C45.2759945,19.5027363 49.8331954,7.50949433 51.9279516,3.95553597 C54.0227078,0.401577617 55.5285732,0.101476011 58.0075387,0.101476011 C60.4865043,0.101476011 62.9670044,0.521457947 64.5899508,3.95553597 L79,38.849215 L67.1624009,38.849215 L62.7381756,26.6096818 L68.4624187,22.4543311 L61.161495,22.4543311 L58.0075387,15.738401 L54.7741215,22.4543311 L47.0781672,22.4543311 L52.812399,26.6096818 C52.812399,36.9298903 27.152494,48.6093969 17.2297568,26.0849328 C16.2299195,22.9502959 13.4082564,14.4594049 22.2432653,4.95590444 C30.1133911,-2.2922686 43.1706532,-0.463584525 45.7074419,3.3140243 Z" id="Path-7"></path>
                <text id="CALIFORNIA-STAR" font-family="Helvetica-Bold, Helvetica" font-size="7" font-weight="bold" letter-spacing="0.55">
                    <tspan x="12.1801758" y="57">CALIFORNIA STAR</tspan>
                </text>
            </g>
        </g>
    </g>
</svg>