<?xml version="1.0" encoding="UTF-8"?>
<svg width="69px" height="69px" viewBox="0 0 69 69" version="1.1" xmlns="http://www.w3.org/2000/svg" xmlns:xlink="http://www.w3.org/1999/xlink">
    <!-- Generator: Sketch 52.5 (67469) - http://www.bohemiancoding.com/sketch -->
    <title>Group 2</title>
    <desc>Created with Sketch.</desc>
    <defs>
        <circle id="path-1" cx="34.5" cy="34.5" r="34.5"></circle>
    </defs>
    <g id="Page-1" stroke="none" stroke-width="1" fill="none" fill-rule="evenodd">
        <g id="Desktop-Copy" transform="translate(-804.000000, -1775.000000)">
            <g id="Group-2" transform="translate(804.000000, 1775.000000)">
                <g id="Group-8">
                    <g id="Group">
                        <mask id="mask-2" fill="white">
                            <use xlink:href="#path-1"></use>
                        </mask>
                        <use id="Mask" fill="#FEF3E2" xlink:href="#path-1"></use>
                        <polygon id="Rectangle" fill="#F7E5CA" mask="url(#mask-2)" transform="translate(51.082183, 41.826634) rotate(-6.000000) translate(-51.082183, -41.826634) " points="19.1686836 46.6907773 50.4308917 18.1727884 82.995682 51.9186266 56.1199316 65.4804788"></polygon>
                        <rect id="Rectangle" fill="#F9C747" mask="url(#mask-2)" x="17" y="17" width="35" height="35" rx="8"></rect>
                        <path d="M44.4222523,41.6850846 L37.5449398,34.9174007 C37.4805309,34.8537594 37.4116479,34.7973105 37.3407272,34.7444795 L38.5587821,33.482377 C38.6210647,33.4206536 38.6799807,33.3557482 38.7342012,33.2890121 C40.3512901,33.8892453 42.2487837,33.5518157 43.548568,32.2729746 C44.4966282,31.339758 44.9747337,30.049322 44.859028,28.7323397 C44.8464917,28.5833058 44.7461573,28.454454 44.6034743,28.4035845 C44.4604812,28.352192 44.3002563,28.3872383 44.1926571,28.4927259 L41.9885345,30.6614988 L39.7569474,30.1079504 L39.1240656,27.842713 L41.3276566,25.6742017 C41.4357873,25.5681474 41.4711369,25.4103519 41.4190428,25.269818 C41.3671701,25.1288918 41.2362703,25.0309888 41.0843734,25.0178682 C39.7461387,24.9043601 38.4346599,25.3745646 37.4862453,26.3077812 C36.1875685,27.5857069 35.8437737,29.4518785 36.4530891,31.0424747 C36.3868197,31.097616 36.3208604,31.1562444 36.2561857,31.2189703 L34.4634119,32.913267 L31.1712483,29.6740128 C31.13014,29.6334306 31.0862852,29.5977304 31.0411015,29.5642098 C31.0797291,29.4975172 31.1172936,29.4288631 31.1523774,29.3575935 C31.8476747,29.4892787 33.118754,28.1569528 34.1982899,27.0950587 L31.0533277,24 C29.6470074,25.3840672 28.6200972,26.3129248 28.7533891,26.9971122 C28.4318761,27.151682 28.1452698,27.3406879 27.9415888,27.5413759 L27.4985671,27.9771879 C27.2109419,28.2606096 27.0374719,28.6130777 26.9755437,28.9803664 C26.9325749,29.028664 26.888853,29.0795334 26.8453969,29.1339337 L26.6802992,29.3381089 C26.6756923,29.3431217 26.6614727,29.3632166 26.6575302,29.3683603 L26.5078924,29.574497 C26.4142913,29.697377 26.3324734,29.8308493 26.2533576,29.9596575 C26.2241654,30.0074757 26.1944416,30.055381 26.1640977,30.1031555 C26.1592692,30.111394 26.1545294,30.1195018 26.1502325,30.1276531 L26.0837416,30.2509254 C26.0033855,30.3992183 25.9199729,30.552742 25.8486092,30.7216529 L25.8370918,30.7485479 C25.7529261,30.9452692 25.6657038,31.1489649 25.6048387,31.3648658 L25.5753807,31.458279 C25.5512828,31.5350844 25.5267861,31.6117155 25.5042829,31.7032979 L25.443152,32.0011479 C25.3975696,32.1874076 25.3822426,32.3711391 25.368909,32.5338603 L25.3600051,32.6407864 C25.3375019,32.8095229 25.344058,32.9686262 25.350171,33.1090293 C25.352253,33.1560628 25.3541135,33.2021809 25.3555311,33.2643838 C25.3571258,33.2902762 25.3573916,33.3155147 25.3581889,33.3404046 C25.3597394,33.4031305 25.361467,33.4744 25.3737817,33.5493311 L25.4121436,33.7910372 C25.420383,33.8377656 25.4273377,33.8831427 25.4338938,33.9266454 C25.4485563,34.0248099 25.4636176,34.1263309 25.4933413,34.2227082 L25.6542307,34.7720283 C25.7038442,34.9389777 25.8649994,35.0495218 26.0413487,35.0374038 C26.134684,35.0309961 26.2185839,34.9912856 26.2810437,34.9296931 C26.3368146,34.8748134 26.3754422,34.8026721 26.3872254,34.7212897 L26.470638,34.1628156 C26.4767954,34.1184847 26.4961535,34.0535793 26.5161761,33.9848816 C26.53044,33.9372378 26.5443052,33.888635 26.5550252,33.847181 L26.6143399,33.638734 C26.6215604,33.6105313 26.6355585,33.5830697 26.6478733,33.554867 C26.6596565,33.528713 26.6714397,33.5017745 26.6819383,33.4752282 C26.7018279,33.4308973 26.7205659,33.3866099 26.7389937,33.3411456 C26.7755394,33.2520042 26.8100916,33.1681372 26.8628502,33.0857959 C26.8857965,33.0477855 26.9071037,33.0100366 26.9288539,32.9715031 C26.9838273,32.8746463 27.0360544,32.7831946 27.0981155,32.7073918 C27.1020137,32.702902 27.1055575,32.6978892 27.1096329,32.6925712 L27.2495695,32.5026935 C27.2782301,32.4669933 27.3104346,32.4332548 27.3417531,32.3992546 C27.3639905,32.3752802 27.3862723,32.3511749 27.4144014,32.3194851 C27.4970166,32.2217129 27.5940287,32.136451 27.6876298,32.0525404 L27.7377749,32.0082094 C27.8071451,31.9448297 27.8874126,31.8851987 27.9718441,31.8221677 C28.0063963,31.7967547 28.0401955,31.7715162 28.0734188,31.7466699 C28.1160775,31.7194698 28.157363,31.6923133 28.1980284,31.6653747 C28.2742205,31.6147232 28.3401798,31.5709154 28.4164162,31.5319024 L28.5823112,31.4390123 L28.7501554,31.3580222 C28.8086727,31.3282503 28.866304,31.305322 28.919417,31.2842244 C28.950957,31.2713218 28.9821426,31.2588115 29.0110691,31.2464756 C29.040527,31.2364499 29.0689219,31.225596 29.0957663,31.2158319 C29.1317361,31.2029292 29.1627888,31.1905497 29.2049603,31.1797394 L29.2502325,31.1697137 C29.2995802,31.2483063 29.3574331,31.3230195 29.4268476,31.3912813 L32.6833959,34.5959251 L25.7313974,41.1666697 C25.7286509,41.1692415 25.7260374,41.1720748 25.7235124,41.1744287 C24.8584219,42.0256963 24.717555,43.2724552 25.5827785,44.1239843 C26.4480019,44.9752518 27.6344725,44.7569971 28.4993416,43.9060347 C28.5031512,43.9024167 28.5064292,43.8990603 28.5097958,43.8951808 L34.6427291,37.540555 C34.6786989,37.5822705 34.7143143,37.6242476 34.7542709,37.6636529 L41.6310518,44.4311188 C42.4016552,45.1896271 43.6516045,45.1896271 44.422208,44.4311188 C45.19259,43.6730901 45.19259,42.4430697 44.4222523,41.6850846 Z M27.7074323,43.7068423 C27.3169619,44.0977192 26.6836082,44.0977192 26.2928121,43.7068423 C25.902396,43.3162912 25.902396,42.6833627 26.2928121,42.2928116 C26.6832281,41.9025319 27.3166361,41.9022604 27.7074323,42.2928116 C28.0975226,42.683417 28.0975226,43.3162912 27.7074323,43.7068423 Z" id="Shape" fill="#333333" fill-rule="nonzero" mask="url(#mask-2)"></path>
                    </g>
                </g>
            </g>
        </g>
    </g>
</svg>