<?xml version="1.0" encoding="UTF-8"?>
<svg width="67px" height="67px" viewBox="0 0 67 67" version="1.1" xmlns="http://www.w3.org/2000/svg" xmlns:xlink="http://www.w3.org/1999/xlink">
    <!-- Generator: Sketch 52.5 (67469) - http://www.bohemiancoding.com/sketch -->
    <title>Aussie Specialist</title>
    <desc>Created with Sketch.</desc>
    <g id="Page-1" stroke="none" stroke-width="1" fill="none" fill-rule="evenodd">
        <g id="Desktop-Copy" transform="translate(-250.000000, -3835.000000)">
            <g id="Aussie-Specialist" transform="translate(251.000000, 3836.000000)">
                <circle id="Oval" stroke="#AAAAAA" stroke-width="2" cx="32.5" cy="32.5" r="32.5"></circle>
                <circle id="Oval" stroke="#EEEEEE" fill="#777777" cx="32.5" cy="32.5" r="29.5"></circle>
                <path d="M22.0701404,27.0475403 C22.0582434,27.0229261 22.0398656,27.0058442 22.0189935,27 L21.9883054,27 C21.966883,27.0039003 21.9479803,27.0214702 21.9371586,27.0475403 L21.0062859,29.8904476 C20.9971171,29.9144169 20.9980333,29.9434445 21.0086768,29.9661983 C21.0193202,29.9889521 21.0380035,30.0018245 21.0574328,29.9997902 L21.248381,29.9997902 C21.2782057,30.0013999 21.3055238,29.9766428 21.3165768,29.9379878 C21.377953,29.7430728 21.4393292,29.5529118 21.5007055,29.3579967 L22.4929544,29.3579967 L22.6804928,29.9379878 C22.6917088,29.9764557 22.7189204,30.0011161 22.7486886,29.9997902 L22.9430466,29.9997902 C22.9623181,30.0012022 22.9806705,29.9881984 22.9912125,29.9656617 C23.0017544,29.943125 23.0028902,29.9144665 22.9941935,29.8904476 L22.0701404,27.0475403 Z M21.6200481,28.9966908 L21.9883054,27.8414625 L22.0019446,27.8414625 L22.3736117,28.9966908 L21.6200481,28.9966908 Z" id="Shape" fill="#FFFFFF" fill-rule="nonzero"></path>
                <path d="M25.756445,27.0000032 C25.7377634,26.999811 25.7197984,27.0082646 25.7065879,27.0234639 C25.6933775,27.0386632 25.6860301,27.059333 25.6861971,27.0808272 L25.6861971,28.8351835 C25.6861971,29.2535666 25.4465277,29.5768626 25.0704946,29.5768626 C24.6944616,29.5768626 24.4630566,29.2488122 24.4630566,28.8256748 L24.4630566,27.0808272 C24.4632237,27.059333 24.4558762,27.0386632 24.4426658,27.0234639 C24.4294554,27.0082646 24.4114903,26.999811 24.3928087,27.0000032 L24.1448748,27.0000032 C24.1065521,27.0012936 24.0757484,27.0367349 24.0746269,27.0808272 L24.0746269,28.8542009 C24.0746269,29.4960386 24.4919822,30 25.0704946,30 C25.649007,30 26.0746269,29.4960386 26.0746269,28.8542009 L26.0746269,27.0808272 C26.0721567,27.037421 26.0421053,27.0028452 26.0043789,27.0000032 L25.756445,27.0000032 Z" id="Path" fill="#FFFFFF"></path>
                <path d="M28.1906482,28.2816763 C27.8192512,28.1408327 27.623515,27.9952944 27.623515,27.7558604 C27.623515,27.6009325 27.7540058,27.3802776 28.1254027,27.3802776 C28.3863844,27.3802776 28.6975548,27.5727637 28.727668,27.5868481 C28.7534621,27.603728 28.7860419,27.6087697 28.8162731,27.6005596 C28.8465044,27.5923496 28.8711327,27.5717716 28.8832532,27.544595 C28.9183854,27.4929524 28.9585364,27.436615 28.9936685,27.3849724 C29.0112768,27.3634965 29.0185724,27.3361502 29.0138158,27.3094534 C29.0090592,27.2827566 28.9926766,27.2591018 28.9685741,27.2441288 C28.7248141,27.090793 28.4391566,27.0060675 28.1454783,27 C27.4378165,27 27.1667972,27.4460046 27.1667972,27.7699447 C27.1667972,28.2535075 27.5231375,28.4741624 27.9798553,28.6525643 C28.4215165,28.8215765 28.6523849,28.9811992 28.6523849,29.2347176 C28.6523849,29.4459829 28.4566487,29.6243847 28.1504971,29.6243847 C27.8092135,29.6243847 27.4629109,29.356782 27.4378165,29.3380028 C27.3876278,29.3004446 27.3274012,29.3192237 27.2872502,29.3708663 C27.2470992,29.4272038 27.2119671,29.488236 27.171816,29.5398786 C27.1266461,29.6103004 27.1567594,29.6384691 27.1969104,29.6713326 C27.4635715,29.8855119 27.8040519,30.0022375 28.155516,29.9999675 C28.7377058,29.9999675 29.1492537,29.6478586 29.1492537,29.2112437 C29.1492537,28.7089017 28.7075925,28.4788572 28.1906482,28.2816763 Z" id="Path" fill="#FFFFFF"></path>
                <path d="M30.0706887,27.0000032 C30.0518906,26.9998086 30.0338135,27.0083707 30.0205207,27.0237652 C30.007228,27.0391597 29.9998347,27.0600949 30.0000028,27.0818651 L30.0000028,27.3226353 C29.9998347,27.3444055 30.007228,27.3653407 30.0205207,27.3807352 C30.0338135,27.3961297 30.0518906,27.4046919 30.0706887,27.4044972 L30.8066533,27.4044972 L30.8066533,29.9181381 C30.8077819,29.9627966 30.8387776,29.9986931 30.8773392,30 L31.1226608,30 C31.1612224,29.9986931 31.1922181,29.9627966 31.1933467,29.9181381 L31.1933467,27.4044972 L31.9293113,27.4044972 C31.9481094,27.4046919 31.9661865,27.3961297 31.9794793,27.3807352 C31.992772,27.3653407 32.0001653,27.3444055 31.9999972,27.3226353 L31.9999972,27.0818651 C32.0001653,27.0600949 31.992772,27.0391597 31.9794793,27.0237652 C31.9661865,27.0083707 31.9481094,26.9998086 31.9293113,27.0000032 L30.0706887,27.0000032 Z" id="Path" fill="#FFFFFF"></path>
                <path d="M34.8507463,27.9164554 C34.8490738,27.6706282 34.7577304,27.4356792 34.5969562,27.2636685 C34.4361819,27.0916577 34.2192525,26.9967888 33.9942354,27.000083 L32.9258043,27.000083 C32.9058443,26.999888 32.8866499,27.0084637 32.8725354,27.0238825 C32.858421,27.0393013 32.8505708,27.0602696 32.8507492,27.0820742 L32.8507492,29.9180055 C32.8505708,29.9398101 32.858421,29.9607784 32.8725354,29.9761972 C32.8866499,29.991616 32.9058443,30.0001917 32.9258043,29.9999967 L33.1818746,29.9999967 C33.2228198,29.9986878 33.2557314,29.9627346 33.2569297,29.9180055 L33.2569297,28.8231817 L33.8485403,28.8231817 L34.3695108,29.9565896 C34.3819016,29.9810513 34.4057383,29.995931 34.4313208,29.9951737 L34.7359562,29.9951737 C34.7636866,29.9962151 34.7896807,29.9804587 34.8035464,29.9542038 C34.8174121,29.9279488 34.8168871,29.895479 34.8021812,29.8697754 L34.2635507,28.7797746 C34.607921,28.6350842 34.8507463,28.3071194 34.8507463,27.9164554 Z M33.2657597,28.4566328 L33.2657597,27.4148621 L33.9633304,27.4148621 C34.222838,27.4159406 34.4343135,27.6426813 34.4401509,27.9261014 C34.4388135,28.2147607 34.2275012,28.449876 33.9633304,28.4566328 L33.2657597,28.4566328 Z" id="Shape" fill="#FFFFFF" fill-rule="nonzero"></path>
                <path d="M36.9973411,27.0475403 C36.9854238,27.0229261 36.9670146,27.0058442 36.9461069,27 L36.9153664,27 C36.8939074,27.0039003 36.8749724,27.0214702 36.8641322,27.0475403 L35.9316698,29.8904476 C35.9224853,29.9144169 35.9234031,29.9434445 35.9340647,29.9661983 C35.9447264,29.9889521 35.9634415,30.0018245 35.982904,29.9997902 L36.1741783,29.9997902 C36.2040539,30.0013999 36.2314187,29.9766428 36.2424906,29.9379878 C36.3039716,29.7430728 36.3654527,29.5529118 36.4269337,29.3579967 L37.4208772,29.3579967 L37.6087359,29.9379878 C37.6199711,29.9764557 37.6472291,30.0011161 37.6770482,29.9997902 L37.8683225,29.9997902 C37.8876269,30.0012022 37.9060107,29.9881984 37.9165706,29.9656617 C37.9271305,29.943125 37.9282683,29.9144665 37.9195567,29.8904476 L36.9973411,27.0475403 Z M36.5464802,28.9966908 L36.9153664,27.8414625 L36.9290288,27.8414625 L37.3013307,28.9966908 L36.5464802,28.9966908 Z" id="Shape" fill="#FFFFFF" fill-rule="nonzero"></path>
                <path d="M40.9093301,29.6044992 L39.4960018,29.6044992 L39.4960018,27.0819966 C39.4945543,27.0372664 39.4547971,27.0013123 39.4053355,27.0000033 L39.0906699,27.0000033 C39.0665583,26.9998083 39.0433714,27.0083842 39.0263212,27.0238034 C39.009271,27.0392226 38.999788,27.0601915 39.0000036,27.0819966 L39.0000036,29.9180034 C38.999788,29.9398085 39.009271,29.9607774 39.0263212,29.9761966 C39.0433714,29.9916158 39.0665583,30.0001917 39.0906699,29.9999967 L40.9093301,29.9999967 C40.9334417,30.0001917 40.9566286,29.9916158 40.9736788,29.9761966 C40.990729,29.9607774 41.000212,29.9398085 40.9999964,29.9180034 L40.9999964,29.6816695 C40.9980602,29.6379075 40.9577494,29.6035972 40.9093301,29.6044992 Z" id="Path" fill="#FFFFFF"></path>
                <path d="M42.5461403,27 C42.4900283,27.001309 42.4449257,27.0372632 42.4432836,27.0819936 L42.4432836,29.9180064 C42.4449257,29.9627368 42.4900283,29.998691 42.5461403,30 L42.9031135,30 C42.9592254,29.998691 43.004328,29.9627368 43.0059701,29.9180064 L43.0059701,27.0819936 C43.0043879,27.0372426 42.9592512,27.0012613 42.9031135,27 L42.5461403,27 Z" id="Path" fill="#FFFFFF"></path>
                <path d="M46.0744528,29.8894336 L45.1505562,27.0475236 C45.1386612,27.0229181 45.1202865,27.0058422 45.099418,27 L45.0687351,27 C45.0473163,27.003899 45.0284167,27.0214626 45.0175969,27.0475236 L44.0868819,29.8894336 C44.0777146,29.9133945 44.0786306,29.9424119 44.0892723,29.9651577 C44.099914,29.9879036 44.118594,30.0007714 44.13802,29.9987378 L44.3289359,29.9987378 C44.3587556,30.0003469 44.3860691,29.9755986 44.3971202,29.9369572 C44.458486,29.7421105 44.5198518,29.5520162 44.5812177,29.3571695 L45.5698893,29.3571695 L45.757396,29.9369572 C45.7686102,29.9754116 45.7958171,30.0000633 45.8255803,29.9987378 L46.0164962,29.9987378 C46.0368898,30.0039931 46.057648,29.9925781 46.0699752,29.9693295 C46.0823023,29.9460809 46.0840404,29.9150688 46.0744528,29.8894336 Z M44.7005401,28.9959903 L45.0687351,27.8411673 L45.0823719,27.8411673 L45.4539761,28.9959903 L44.7005401,28.9959903 Z" id="Shape" fill="#FFFFFF" fill-rule="nonzero"></path>
                <path d="M40.7752719,12.1130898 C40.5790305,12.0392117 39.8795247,11.9589094 39.5851626,11.9267885 C39.4490596,11.8143653 39.0850634,11.5317013 38.8761613,11.5317013 C38.8319052,11.5308831 38.788224,11.5419653 38.7495539,11.5638222 C38.6936485,11.5949009 38.6533789,11.648611 38.6387724,11.7115784 C38.6166161,11.801517 38.6419376,11.8978797 38.7115717,12.0392117 C38.610753,12.002454 38.5051913,11.9808124 38.3982184,11.9749699 C38.3163528,11.9705064 38.2373915,12.0063862 38.1861511,12.0713326 C38.143756,12.1243812 38.1274487,12.1941234 38.1418385,12.260846 C38.2051422,12.5692068 38.7495539,12.9932028 38.7495539,12.9932028 C38.7464653,13.0003226 38.7421813,13.0068437 38.7368932,13.0124754 C38.236794,13.8861642 37.4138461,14.0146479 36.9707203,14.0146479 L36.8092958,14.0146479 C36.4937537,14.0156699 36.1786358,14.0382053 35.8660709,14.0821018 L35.9072183,13.9664665 C36.4532997,12.4330437 35.6744551,10.7402301 34.165381,10.1805946 C32.6563069,9.62095909 30.9854487,10.405308 30.4286111,11.9347419 C29.8717735,13.4641757 30.6387089,15.1625799 32.143814,15.7331167 L32.2039525,15.7556013 C31.8275398,15.8666554 31.4374924,15.9228932 31.0454951,15.9226301 C30.6475774,15.921443 30.2515968,15.8663508 29.8680465,15.7588134 C29.310974,15.604633 27.8898062,15.0103962 26.6490539,12.8550829 C26.4907947,12.5788431 26.3641873,12.5531463 26.272397,12.5531463 C26.1883536,12.5521268 26.1091408,12.5929201 26.0603296,12.6623574 C25.9875304,12.7619323 25.9812,12.9032643 26.0381733,13.0799293 C26.0888163,13.2405339 26.5635939,14.6859749 27.6682433,15.7459651 C28.8361963,16.8669849 30.2953463,17.4965548 32.1343185,17.6764319 L32.1406489,17.6764319 C32.517926,17.6994236 32.8932919,17.7477103 33.2642893,17.820976 L33.2168116,17.8884299 C33.0743783,18.0843675 32.5236362,18.4280613 31.98872,18.7589067 C31.4601342,19.08654 30.3428241,19.6422318 30.3333286,19.6486559 C30.2763552,19.6775648 28.9311519,20.3392556 28.4627046,20.7536153 C27.7442077,21.3928215 27.6492522,22.0513002 27.7853551,22.4206907 C27.851824,22.5973557 27.972101,22.7033547 28.1113691,22.7033547 C28.2727935,22.7033547 28.383575,22.5812953 28.5829816,22.3628731 C28.8423306,22.0685217 29.1284649,21.7996562 29.4375814,21.5598503 C30.5580567,20.6957977 31.8589474,19.9698651 33.2991063,19.4077491 C33.5966337,19.2921138 34.2644876,19.0929642 34.460729,19.0319344 L34.5493542,19.0062377 C34.5018764,19.263205 34.3372868,19.4880514 34.065081,19.6550801 C33.8435181,19.7835638 32.9034583,20.3745886 32.5014799,20.6283438 C32.4128547,20.6861614 31.9728941,20.9463408 31.8051393,21.0459156 C30.9283832,21.5566382 30.0991049,22.0416639 29.1115674,23.0438364 C28.5323386,23.6316491 28.4753653,24.4250357 28.6177986,24.7751536 C28.7000934,24.9807275 28.8456919,25 28.9026652,25 C29.0957415,25 29.2571659,24.823335 29.6085013,24.4410961 C29.8047428,24.225886 30.0516271,23.9592824 30.3554849,23.6669821 C31.4759601,22.5941436 33.0237353,21.6819097 34.2644876,20.9463408 C34.8342208,20.6090712 35.3248244,20.319983 35.679325,20.072652 C36.2838752,19.6550801 37.0815017,18.9323596 37.4771498,17.8498848 C37.9266059,17.3905558 38.3349147,16.834864 38.7147369,16.1635369 C38.7495539,16.3948075 38.7717102,16.6421385 38.7400583,16.7866826 C38.7052413,16.9537114 38.7242324,17.0854071 38.7970317,17.1753457 C38.8493241,17.2418464 38.9284289,17.2808044 39.0122642,17.2813447 C39.2591486,17.2813447 39.4933722,16.9633476 39.5503455,16.5425637 C39.6073189,16.1346281 39.610484,15.1324556 39.610484,15.0906984 C39.6136492,14.5157341 39.6674574,14.2170096 39.7529173,13.9214972 C39.8003951,13.7769531 39.9301677,13.5007133 39.987141,13.4364714 C40.1613611,13.2427677 40.3901191,13.1081891 40.6423342,13.0510205 L40.6613253,13.0445963 C40.8892185,12.9675061 40.9936696,12.7105388 41,12.5017529 C41,12.3154516 40.9177052,12.1676954 40.7752719,12.1130898 Z" id="Path" fill="#FFFFFF"></path>
                <path d="M34.8117626,18.3876525 C34.7499972,18.315865 34.5617597,18.143575 34.0558716,18 C33.9058699,18.2440775 33.4676296,18.5814788 32.8617404,19.0337401 C32.3558522,19.4106246 31.3058403,20.0387653 31.3058403,20.0387653 C31.3058403,20.0387653 30.0293552,20.7925341 29.6117034,21.2376167 C28.7558113,22.149318 28.9999317,23 29.1558158,23 C29.2999351,23 29.5528792,22.4364681 30.2705344,21.7724336 C31.2940755,20.8212491 32.4940891,19.9956927 33.9058699,19.3352477 C34.1970497,19.1988514 34.8411747,18.965542 35,18.9117014 C34.9948475,18.7227715 34.9331068,18.5427053 34.8264686,18.4055994 L34.8117626,18.3876525 Z" id="Path" fill="#FFFFFF"></path>
                <path d="M39.8351321,14 C40.0291987,13.5240729 40.0976928,13.3077425 39.7837615,13.1779442 C39.5212008,13.0697789 39.0702813,12.9507972 39.007495,13.0211046 C38.9161695,13.1400863 39.6867282,13.9134678 39.8351321,14 Z" id="Path" fill="#FFFFFF"></path>
                <path d="M37.9994662,16.8228388 C37.9852134,16.2682072 37.7070639,15.747802 37.2396284,15.4012162 C37.1872722,15.3619145 37.1324798,15.3254852 37.075532,15.292115 C36.7746642,15.1128059 36.4270565,15.0122755 36.0695497,15.0011783 C34.9708172,14.9648112 34.0219118,15.7748054 34.0005079,16.8063083 C33.9826714,17.6063843 34.4392875,18.0262589 34.6319224,18.2047882 L34.649759,18.2213187 C35.0742692,18.6180506 35.2169618,19.4842486 34.3037296,20 C35.4631064,19.3883717 37.0006185,18.7205397 37.8211005,17.8378112 C37.8211005,17.8345051 37.8211005,17.8345051 37.8246678,17.831199 C37.8567737,17.7518527 38.0101681,17.2856927 37.9994662,16.8228388 Z" id="Path" fill="#FFFFFF"></path>
                <path d="M33.5522625,16.5266509 C32.9068567,16.894637 31.5759163,17.434551 29.8069026,17.003223 C27.6666969,16.4783904 26.3491328,14.2976204 26.2521547,14.152839 C26.0916393,13.9115366 25.934468,13.9688459 26.028102,14.2342785 C26.121736,14.5027274 26.6233467,15.7424182 27.6934495,16.6533346 C28.746832,17.5521859 30.1948148,18.2308487 32.2781713,18.4118255 C34.0404969,18.5204116 34.5554839,18.8672837 34.7093111,19 C34.5287313,18.8371209 34.1006902,18.4540534 34.1174105,17.7241138 C34.1374749,16.7830346 35.0269979,16.0440462 36.0569719,16.0772252 C36.3920202,16.0878052 36.7177438,16.1794861 37,16.3426578 L36.9933119,16.3366253 C36.3311857,15.9264113 34.8397299,15.8117926 33.5522625,16.5266509 Z" id="Path" fill="#FFFFFF"></path>
                <path d="M35.7075057,20.0878871 C35.4303485,20.2408925 33.9477242,21.120674 33.8909571,21.1525501 C32.765632,21.7900729 31.7538411,22.2395264 30.5249994,23.4189435 C29.833776,24.0819672 29.9606672,25 30.1476649,25 C30.3313233,25 30.752068,24.4326047 31.5267725,23.7345173 C33.273197,22.1630237 35.9946806,20.9230419 37.1700944,20.1484517 C37.918085,19.6607468 38.6427009,18.9530965 39,18 C38.2319739,18.8574681 36.7894206,19.4981785 35.7075057,20.0878871 Z" id="Path" fill="#FFFFFF"></path>
                <path d="M41.9117797,12.6882216 C41.7559578,12.6185214 41.1294238,12.5255879 40.6781894,12.4675044 C40.5028898,12.2816373 40.0971035,11.9486255 40.0126999,12.0067089 C39.9250501,12.0647924 40.2918809,12.6882216 40.337329,12.8160052 C40.2965851,13.1139588 40.2096125,13.4002352 40.080872,13.6601515 C39.3796734,15.0967492 38.1330979,14.9921989 38,14.9960712 C38.4869435,15.0076878 39.8438929,15.0502824 40.8015485,14.1132025 C40.8762132,14.0357579 40.9508778,13.9544411 41.0222962,13.869252 C41.2302271,13.6024824 41.5005161,13.4163237 41.7981596,13.3348841 C42.0091684,13.2535673 42.0676017,12.7579217 41.9117797,12.6882216 Z" id="Path" fill="#FFFFFF"></path>
                <path d="M39,16.0916047 C39.0510638,16.3585333 39.2723404,17.2668874 39.1744681,17.7051284 C39.0553191,18.2350016 39.6042553,18.0198651 39.7106383,17.3067275 C39.7829787,16.8127104 39.7914894,15.5378275 39.7914894,15.5378275 C39.7957447,14.7529777 39.8851064,14.3585608 40,14 C39.7617021,14.5298732 39.4425532,15.2828509 39,16.0916047 Z" id="Path" fill="#FFFFFF"></path>
                <path d="M33.6197214,15.4928233 C34.0348146,15.1969702 34.6633009,14.7501717 35.549028,14.5237535 C35.6484166,14.4996022 35.7478051,14.475451 35.8501168,14.4603564 C36.3188039,13.1230894 35.6517858,11.6462404 34.3584917,11.1577399 C33.0651976,10.6692394 31.632952,11.3531587 31.1556201,12.6871604 C30.6782881,14.021162 31.3357327,15.5025826 32.6258361,16 C32.9241902,15.9036593 33.2091527,15.7676754 33.4735618,15.5954662 C33.5174097,15.568296 33.5671039,15.5320691 33.6197214,15.4928233 Z" id="Path" fill="#FFFFFF"></path>
                <path d="M39.800489,13.2312139 C38.9349633,14.109104 37.7056235,14.0693642 37.2684597,14.0549133 C37.0982885,14.0513006 36.4821516,14.058526 35.9716381,14.2138728 C35.0356968,14.4992775 34.407824,15.1026012 34,15.4385838 C35.1295844,14.5823699 36.4410758,14.7196532 37.0190709,15.2145954 C37.0220049,15.2145954 37.0220049,15.2182081 37.0249389,15.2218208 C37.0717763,15.2582859 37.1168411,15.2980938 37.1599022,15.3410405 C37.5464291,15.7177033 37.7757129,16.2876553 37.7848411,16.8945087 C37.793643,17.4039017 37.6674817,17.9096821 37.6440098,17.9963873 L37.6440098,18 C38.2484108,17.2557803 38.7031785,16.3598266 39.0493888,15.525289 C39.3545232,14.7919075 39.5745721,14.109104 39.7388753,13.6322254 C39.8474328,13.3143064 39.9325183,13.0903179 40,13 C39.9354523,13.0830925 39.8679707,13.1589595 39.800489,13.2312139 Z" id="Path" fill="#FFFFFF"></path>
                <text id="AUSSIE" font-family="LucidaGrande-Bold, Lucida Grande" font-size="6" font-weight="bold" letter-spacing="0.24" fill="#FFFFFF">
                    <tspan x="22" y="38">AUSSI</tspan>
                    <tspan x="40.8806641" y="38" letter-spacing="0.2057143">E</tspan>
                </text>
                <text id="SPECIALIST" font-family="LucidaGrande-Bold, Lucida Grande" font-size="6" font-weight="bold" letter-spacing="0.24" fill="#FFFFFF">
                    <tspan x="15" y="45">SPECIALIS</tspan>
                    <tspan x="47.4588281" y="45" letter-spacing="0.2057143">T</tspan>
                </text>
            </g>
        </g>
    </g>
</svg>