<?xml version="1.0" encoding="UTF-8"?>
<svg width="580px" height="614px" viewBox="0 0 580 614" version="1.1" xmlns="http://www.w3.org/2000/svg" xmlns:xlink="http://www.w3.org/1999/xlink">
    <!-- Generator: Sketch 52.5 (67469) - http://www.bohemiancoding.com/sketch -->
    <title>Group 6</title>
    <desc>Created with Sketch.</desc>
    <g id="Page-1" stroke="none" stroke-width="1" fill="none" fill-rule="evenodd">
        <g id="Italy-Pillar-Page" transform="translate(-398.000000, -3476.000000)" fill="#FAFAFA">
            <g id="Group-6" transform="translate(233.000000, 3316.000000)">
                <path d="M429.588248,144.312468 L679.659447,497.317014 C693.706558,517.146144 689.019306,544.608263 669.190177,558.655374 C655.47061,568.374424 637.411754,569.425338 622.657436,561.363295 L375.826988,426.490384 L176.83889,545.490756 C155.983232,557.963015 128.965617,551.166927 116.493358,530.311269 C107.54634,515.35039 108.275308,496.518197 118.352053,482.293702 L357.780618,144.312468 C371.82773,124.483339 399.289849,119.796087 419.118978,133.843199 C423.175041,136.716545 426.714902,140.256406 429.588248,144.312468 Z" id="Triangle" transform="translate(399.007502, 346.247561) rotate(-35.000000) translate(-399.007502, -346.247561) "></path>
                <path d="M316.31434,413.061124 L480.769237,645.514504 C494.80402,665.352361 490.099699,692.811561 470.261842,706.846344 C456.537101,716.556252 438.478917,717.59647 423.730004,709.52675 L266.402502,623.446588 L149.182602,693.639781 C128.334191,706.12415 101.312634,699.343755 88.8282645,678.495344 C79.8728932,663.540223 80.5905093,644.708396 90.6580337,630.478172 L244.475105,413.061124 C258.509888,393.223267 285.969088,388.518946 305.806945,402.553729 C309.879785,405.43516 313.432909,408.988285 316.31434,413.061124 Z" id="Triangle" transform="translate(284.565619, 560.489312) rotate(-35.000000) translate(-284.565619, -560.489312) "></path>
            </g>
        </g>
    </g>
</svg>