<?xml version="1.0" encoding="UTF-8"?>
<svg width="78px" height="78px" viewBox="0 0 78 78" version="1.1" xmlns="http://www.w3.org/2000/svg" xmlns:xlink="http://www.w3.org/1999/xlink">
    <!-- Generator: Sketch 52.5 (67469) - http://www.bohemiancoding.com/sketch -->
    <title>Group</title>
    <desc>Created with Sketch.</desc>
    <defs>
        <circle id="path-1" cx="39" cy="39" r="39"></circle>
    </defs>
    <g id="Page-1" stroke="none" stroke-width="1" fill="none" fill-rule="evenodd">
        <g id="Artboard" transform="translate(-381.000000, -867.000000)">
            <g id="Group" transform="translate(381.000000, 867.000000)">
                <g id="Path-36">
                    <mask id="mask-2" fill="white">
                        <use xlink:href="#path-1"></use>
                    </mask>
                    <use id="Mask" fill="#FEF3E2" xlink:href="#path-1"></use>
                    <polygon fill="#F7E5CA" mask="url(#mask-2)" points="26.8576311 52.176 63 83.9599382 84.8483524 53.2527473 40.6813527 6"></polygon>
                </g>
                <g id="autumn" transform="translate(18.000000, 6.000000)">
                    <polygon id="Path" fill="#000000" points="25.109375 67.8275382 25.109375 53 20.890625 53 20.890625 67.8275382 20.890625 71.176 25.109375 71.176 25.109375 67.176"></polygon>
                    <path d="M12.5767534,35.1112485 L15.5429675,32.1156448 L20.4026197,37.0234471 L20.4026197,26.1475968 L24.5975201,26.1475968 L24.5975201,37.0234471 L29.4571723,32.1156448 L32.4233864,35.1112485 L24.5975201,43.0146544 L24.5975201,53 C33.8144153,51.8955538 41,43.6054999 41,33.5734121 C41,28.9118895 39.4478869,24.4589423 36.6103164,20.9275671 C36.6589773,20.3364392 36.6834475,19.7447464 36.6834475,19.1594083 C36.6834475,8.04010253 24.0519034,0.865792019 23.5141172,0.56585037 L22.5000699,0 L21.4858828,0.565709155 C20.9482364,0.865650803 8.31655247,8.04010253 8.31655247,19.1592671 C8.31655247,19.7446052 8.34102272,20.336298 8.38968357,20.9274259 C5.55225296,24.4588011 4,28.9118895 4,33.5732708 C4,43.6052175 11.1855847,51.8954126 20.4024799,52.9998588 L20.4024799,43.0145132 L12.5767534,35.1112485 Z" id="Path" fill="#F9C747"></path>
                    <path d="M48.4618347,44 C43.7960335,44 40,47.76408 40,52.3906063 L40,56 L44.5381653,56 C49.2039665,56 53,52.2360607 53,47.6093937 L53,44 L48.4618347,44 Z" id="Path" fill="#4A4A4A"></path>
                    <path d="M3.60925305,51 L0,51 L0,55.5381653 C0,60.2039665 3.76393934,64 8.39060632,64 L12,64 L12,59.4618347 C11.9998594,54.7958917 8.23577941,51 3.60925305,51 Z" id="Path" fill="#000000"></path>
                </g>
            </g>
        </g>
    </g>
</svg>