<?xml version="1.0" encoding="UTF-8"?>
<svg width="45px" height="60px" viewBox="0 0 45 60" version="1.1" xmlns="http://www.w3.org/2000/svg" xmlns:xlink="http://www.w3.org/1999/xlink">
    <!-- Generator: Sketch 52.5 (67469) - http://www.bohemiancoding.com/sketch -->
    <title>location</title>
    <desc>Created with Sketch.</desc>
    <g id="Page-1" stroke="none" stroke-width="1" fill="none" fill-rule="evenodd">
        <g id="Desktop-Copy-2" transform="translate(-86.000000, -444.000000)" fill="#333333" fill-rule="nonzero">
            <g id="location" transform="translate(86.000000, 444.000000)">
                <path d="M22.5642857,0 C10.4210204,0 0.540612245,9.88040816 0.540612245,22.024898 C0.540612245,25.1926531 1.18897959,28.2171429 2.46673469,31.015102 C7.97326531,43.0646939 18.5308163,55.7865306 21.6361224,59.3981633 C21.8687755,59.6681633 22.2079592,59.8236735 22.564898,59.8236735 C22.9218367,59.8236735 23.2610204,59.6681633 23.4936735,59.3981633 C26.5977551,55.7871429 37.1553061,43.0659184 42.6636735,31.015102 C43.9420408,28.2171429 44.5897959,25.1926531 44.5897959,22.024898 C44.5885714,9.88040816 34.7081633,0 22.5642857,0 Z M22.5642857,33.4646939 C16.2563265,33.4646939 11.1238776,28.3322449 11.1238776,22.0242857 C11.1238776,15.7157143 16.2563265,10.5832653 22.5642857,10.5832653 C28.8722449,10.5832653 34.0046939,15.7157143 34.0046939,22.0242857 C34.0053061,28.3322449 28.8728571,33.4646939 22.5642857,33.4646939 Z" id="Shape"></path>
            </g>
        </g>
    </g>
</svg>