<?xml version="1.0" encoding="UTF-8"?>
<svg width="60px" height="60px" viewBox="0 0 60 60" version="1.1" xmlns="http://www.w3.org/2000/svg" xmlns:xlink="http://www.w3.org/1999/xlink">
    <!-- Generator: Sketch 52.5 (67469) - http://www.bohemiancoding.com/sketch -->
    <title>plane</title>
    <desc>Created with Sketch.</desc>
    <g id="Page-1" stroke="none" stroke-width="1" fill="none" fill-rule="evenodd">
        <g id="Desktop-Copy-2" transform="translate(-168.000000, -444.000000)" fill="#333333">
            <g id="plane" transform="translate(168.000000, 444.000000)">
                <path d="M59.2982544,7.41321696 C60.2091771,4.6794015 60.0387531,2.57221945 58.7847382,1.09077307 C57.3038903,-0.162493766 55.1962594,-0.33276808 52.4618454,0.576957606 C49.7277307,1.48832918 47.2783541,3.02603491 45.1135661,5.19037406 L38.278803,12.0257357 L9.87127182,5.23361596 C9.41551122,5.09102244 8.98832918,5.20488778 8.58987531,5.57506234 L3.12149626,11.0431421 C2.80862843,11.3567581 2.68009975,11.7411471 2.73725686,12.1967581 C2.82269327,12.6529676 3.06493766,12.9942643 3.46354115,13.2222943 L25.1649875,25.1408978 L14.1004489,36.2054364 L5.81296758,33.9418953 C5.75610973,33.9131671 5.64254364,33.898803 5.4715212,33.898803 C5.07261845,33.898803 4.74538653,34.0267332 4.48892768,34.2833416 L0.388129676,38.426783 C0.103391521,38.7677805 -0.0245386534,39.1240399 0.00389027431,39.4939152 C0.0604488778,39.9495262 0.24553616,40.277207 0.55915212,40.4769576 L11.3241397,48.5503242 L19.3978055,59.3150125 C19.6542643,59.6289277 19.9961596,59.8131172 20.4233416,59.8710224 L20.5087781,59.8710224 C20.9076808,59.8710224 21.2349127,59.7430923 21.4913716,59.4870823 L25.59202,55.3867332 C25.9621945,54.9873815 26.0762095,54.545985 25.9340648,54.0619451 L23.6697756,45.7744638 L34.7341646,34.7091771 L46.6533666,56.4118204 C46.8239401,56.7821446 47.1228928,57.0098753 47.5503741,57.0954613 C47.6353616,57.1240399 47.7351621,57.1379551 47.8494763,57.1379551 C48.1904738,57.1379551 48.4614464,57.0523691 48.6605985,56.8817955 L54.1297257,52.7809975 C54.6130175,52.3825436 54.7840399,51.9130175 54.6423441,51.3718204 L47.8074314,21.6395012 L54.6852868,14.7619451 C56.8491771,12.5967082 58.3868828,10.1470324 59.2982544,7.41321696 Z" id="Path"></path>
            </g>
        </g>
    </g>
</svg>