<?xml version="1.0" encoding="UTF-8"?>
<svg width="85px" height="85px" viewBox="0 0 85 85" version="1.1" xmlns="http://www.w3.org/2000/svg" xmlns:xlink="http://www.w3.org/1999/xlink">
    <!-- Generator: Sketch 52.5 (67469) - http://www.bohemiancoding.com/sketch -->
    <title>Insta</title>
    <desc>Created with Sketch.</desc>
    <g id="Page-1" stroke="none" stroke-width="1" fill="none" fill-rule="evenodd">
        <g id="Artboard" transform="translate(-2304.000000, -10757.000000)">
            <g id="Footer" transform="translate(0.000000, 9999.000000)">
                <g id="Insta" transform="translate(2304.000000, 758.000000)">
                    <circle id="Oval" fill="#333333" cx="42.5" cy="42.5" r="42.5"></circle>
                    <g id="instagram" transform="translate(14.000000, 14.000000)" fill="#AAAAAA">
                        <path d="M39.1875,0 L17.8125,0 C7.9764375,0 0,7.9764375 0,17.8125 L0,39.1875 C0,49.0235625 7.9764375,57 17.8125,57 L39.1875,57 C49.0235625,57 57,49.0235625 57,39.1875 L57,17.8125 C57,7.9764375 49.0235625,0 39.1875,0 Z M51.65625,39.1875 C51.65625,46.063125 46.063125,51.65625 39.1875,51.65625 L17.8125,51.65625 C10.936875,51.65625 5.34375,46.063125 5.34375,39.1875 L5.34375,17.8125 C5.34375,10.936875 10.936875,5.34375 17.8125,5.34375 L39.1875,5.34375 C46.063125,5.34375 51.65625,10.936875 51.65625,17.8125 L51.65625,39.1875 Z" id="Shape" fill-rule="nonzero"></path>
                        <path d="M28.5,14 C20.492375,14 14,20.492375 14,28.5 C14,36.507625 20.492375,43 28.5,43 C36.507625,43 43,36.507625 43,28.5 C43,20.492375 36.507625,14 28.5,14 Z M28.5,37.5625 C23.50475,37.5625 19.4375,33.49525 19.4375,28.5 C19.4375,23.501125 23.50475,19.4375 28.5,19.4375 C33.49525,19.4375 37.5625,23.501125 37.5625,28.5 C37.5625,33.49525 33.49525,37.5625 28.5,37.5625 Z" id="Shape" fill-rule="nonzero"></path>
                        <circle id="Oval" cx="44" cy="13" r="2"></circle>
                    </g>
                </g>
            </g>
        </g>
    </g>
</svg>