<?xml version="1.0" encoding="UTF-8"?>
<svg width="78px" height="54px" viewBox="0 0 78 54" version="1.1" xmlns="http://www.w3.org/2000/svg" xmlns:xlink="http://www.w3.org/1999/xlink">
    <!-- Generator: Sketch 52.5 (67469) - http://www.bohemiancoding.com/sketch -->
    <title>icon_mail</title>
    <desc>Created with Sketch.</desc>
    <g id="Page-1" stroke="none" stroke-width="1" fill="none" fill-rule="evenodd">
        <g id="Artboard" transform="translate(-3117.000000, -775.000000)" fill="#F6C748">
            <g id="icon_mail" transform="translate(3117.000000, 775.000000)">
                <path d="M38.0083052,38.0566874 L28.4184811,30 L1,52.5597875 C1.996633,53.4472985 3.34208754,54 4.82596334,54 L71.1906472,54 C72.6689861,54 74.0089038,53.4472985 75,52.5597875 L47.5981294,30 L38.0083052,38.0566874 Z" id="Path"></path>
                <path d="M75,1.40016667 C74.0034415,0.532166667 72.6636241,0 71.1743229,0 L4.81460422,0 C3.33637587,0 1.99655844,0.537333333 1,1.4105 L37.9944636,31 L75,1.40016667 Z" id="Path"></path>
                <polygon id="Path" points="0 5 0 51 26 28.2602311"></polygon>
                <polygon id="Path" points="52 28.2684394 78 51 78 5"></polygon>
            </g>
        </g>
    </g>
</svg>