<?xml version="1.0" encoding="UTF-8"?>
<svg width="47px" height="38px" viewBox="0 0 47 38" version="1.1" xmlns="http://www.w3.org/2000/svg" xmlns:xlink="http://www.w3.org/1999/xlink">
    <!-- Generator: Sketch 52.5 (67469) - http://www.bohemiancoding.com/sketch -->
    <title>twitter-logo-silhouette</title>
    <desc>Created with Sketch.</desc>
    <g id="Page-1" stroke="none" stroke-width="1" fill="none" fill-rule="evenodd">
        <g id="Artboard" transform="translate(-576.000000, -10895.000000)" fill="#1DA1F2">
            <g id="twitter-logo-silhouette" transform="translate(576.000000, 10895.000000)">
                <path d="M47,4.49599794 C45.2701361,5.25895007 43.414017,5.77637548 41.463821,6.00737852 C43.4551037,4.82048765 44.9793807,2.93791225 45.7018149,0.701570449 C43.8339458,1.80070768 41.772163,2.59882241 39.5752934,3.03147536 C37.8160928,1.16350009 35.3137995,0 32.5383375,0 C27.2136588,0 22.8963332,4.29725277 22.8963332,9.59427018 C22.8963332,10.3455269 22.9815016,11.0792788 23.1460019,11.7809257 C15.1340247,11.3803777 8.02956377,7.55965473 3.27464587,1.75392612 C2.44346641,3.16883885 1.97062414,4.81750647 1.97062414,6.57739495 C1.97062414,9.90706451 3.67406973,12.8449768 6.25861317,14.5638167 C4.67850438,14.5112257 3.19239574,14.0785727 1.8913691,13.359421 L1.8913691,13.4792796 C1.8913691,18.1273176 5.21601016,22.0065176 9.62434089,22.8894048 C8.81666147,23.1057312 7.96497707,23.2255898 7.08387922,23.2255898 C6.4612818,23.2255898 5.85918931,23.1642082 5.26884684,23.0472543 C6.49645506,26.8621678 10.0560965,29.6363446 14.2735854,29.7124029 C10.9753627,32.2849298 6.81662388,33.8138152 2.29962467,33.8138152 C1.5213587,33.8138152 0.754765939,33.7670336 0,33.6822612 C4.2674073,36.4097329 9.33366231,38 14.7787594,38 C32.514991,38 42.2099088,23.3776299 42.2099088,10.6963886 L42.1775771,9.45400196 C44.0718645,8.10918512 45.7106466,6.41954542 47,4.49599794 Z" id="Path"></path>
            </g>
        </g>
    </g>
</svg>