<?xml version="1.0" encoding="UTF-8"?>
<svg width="74px" height="62px" viewBox="0 0 74 62" version="1.1" xmlns="http://www.w3.org/2000/svg" xmlns:xlink="http://www.w3.org/1999/xlink">
    <!-- Generator: Sketch 52.5 (67469) - http://www.bohemiancoding.com/sketch -->
    <title>left-arrow</title>
    <desc>Created with Sketch.</desc>
    <defs>
        <filter x="0.0%" y="0.0%" width="100.0%" height="100.0%" filterUnits="objectBoundingBox" id="filter-1">
            <feGaussianBlur stdDeviation="0" in="SourceGraphic"></feGaussianBlur>
        </filter>
    </defs>
    <g id="Page-1" stroke="none" stroke-width="1" fill="none" fill-rule="evenodd">
        <g id="Artboard" transform="translate(-280.000000, -392.000000)" fill="#000000">
            <g id="left-arrow" transform="translate(316.500000, 422.500000) rotate(180.000000) translate(-316.500000, -422.500000) translate(279.000000, 391.000000)">
                <path d="M69.89657,25.7408161 L70.0105212,25.7658937 L21.1622554,25.7658937 L36.5183659,10.2828813 C37.2703251,9.5269716 37.6828047,8.50297074 37.6828047,7.42821765 C37.6828047,6.35346456 37.2703251,5.33662872 36.5183659,4.57892779 L34.1289518,2.17386921 C33.3775861,1.41795954 32.3763587,1 31.3086597,1 C30.2403673,1 29.2385463,1.41497411 28.4871806,2.17088378 L2.16386118,28.6510087 C1.40952801,29.4099038 0.997048422,30.4207688 1.0000159,31.4961189 C0.997048422,32.57744 1.40952801,33.588902 2.16386118,34.346603 L28.4871806,60.8291162 C29.2385463,61.5844288 30.2397738,62 31.3086597,62 C32.3763587,62 33.3775861,61.5838317 34.1289518,60.8291162 L36.5183659,58.4240576 C37.2703251,57.6693421 37.6828047,56.6614626 37.6828047,55.5867095 C37.6828047,54.5125535 37.2703251,53.5578145 36.5183659,52.8025019 L20.9889546,37.2329121 L69.9511716,37.2329121 C72.1512606,37.2329121 74,35.3252254 74,33.1130253 L74,29.7114317 C74,27.4992316 72.096659,25.7408161 69.89657,25.7408161 Z" id="Path" filter="url(#filter-1)" transform="translate(37.500000, 31.500000) rotate(179.000000) translate(-37.500000, -31.500000) "></path>
            </g>
        </g>
    </g>
</svg>