<?xml version="1.0" encoding="UTF-8"?>
<svg width="52px" height="48px" viewBox="0 0 52 48" version="1.1" xmlns="http://www.w3.org/2000/svg" xmlns:xlink="http://www.w3.org/1999/xlink">
    <!-- Generator: Sketch 52.5 (67469) - http://www.bohemiancoding.com/sketch -->
    <title>phone-receiver</title>
    <desc>Created with Sketch.</desc>
    <g id="Page-1" stroke="none" stroke-width="1" fill="none" fill-rule="evenodd">
        <g id="Artboard" transform="translate(-169.000000, -10539.000000)" fill="#888888">
            <g id="phone-receiver" transform="translate(169.000000, 10539.000000)">
                <path d="M51.9752143,37.8812904 C52.0854018,38.6610331 51.8281477,39.338998 51.2045315,39.9151851 L43.883045,46.6267887 C43.5527524,46.9657711 43.121627,47.2541555 42.5894888,47.491194 C42.0573507,47.7285648 41.5344774,47.8811069 41.0208687,47.9488203 C40.9841695,47.9488203 40.8738022,47.9575441 40.6902163,47.9744932 C40.5069903,47.9913593 40.2684456,48 39.9748521,48 C39.2773878,48 38.1487981,47.8898307 36.5890829,47.669409 C35.0293677,47.4489873 33.1211003,46.9065323 30.8642806,46.0422932 C28.6069212,45.1778879 26.0472433,43.8811138 23.1847972,42.1524694 C20.3223511,40.4239081 17.2762291,38.0508647 14.0467013,35.0338377 C11.4777586,32.6948587 9.34920616,30.4575744 7.66104386,28.322068 C5.97288156,26.1863954 4.61501189,24.2118225 3.58743484,22.3982663 C2.55976784,20.5847101 1.78908505,18.9406452 1.27529652,17.4660715 C0.761507994,15.9914977 0.41286578,14.7203135 0.229369878,13.6525187 C0.0458739755,12.584724 -0.0275243853,11.7457424 0.00917479511,11.1355739 C0.0458739755,10.5254055 0.0642235658,10.186423 0.0642235658,10.1186266 C0.137621927,9.6440511 0.302768239,9.16100109 0.559662502,8.66947652 C0.816556765,8.17795195 1.1284998,7.77964755 1.4954916,7.47456333 L8.8169781,0.711863175 C9.33076663,0.237287725 9.91795351,0 10.5785388,0 C11.0556281,0 11.4776687,0.127118424 11.8446605,0.381355272 C12.2116523,0.63559212 12.5235953,0.949150899 12.7804896,1.32203161 L18.670708,11.6440476 C19.0010007,12.1864196 19.0927486,12.7796389 18.9459519,13.4237056 C18.7991552,14.0677723 18.4872121,14.6101442 18.0101228,15.0508214 L15.312733,17.5423425 C15.2393347,17.610139 15.1751111,17.7203083 15.1200623,17.8728504 C15.0650136,18.0253925 15.0374892,18.152511 15.0374892,18.2542057 C15.1842859,18.9660689 15.5145785,19.7796268 16.0283671,20.6948794 C16.4687572,21.5084373 17.1476921,22.4999611 18.0651716,23.6694506 C18.9826511,24.8389401 20.285472,26.1863123 21.9736343,27.7117334 C23.6250974,29.2712189 25.0930646,30.482915 26.3775359,31.3474865 C27.6617374,32.2115594 28.7355482,32.8474008 29.597979,33.2541797 C30.4604097,33.6609587 31.120995,33.906721 31.5796448,33.9912173 L32.2675745,34.1184188 C32.3409729,34.1184188 32.460515,34.0929121 32.6254815,34.0421478 C32.7906278,33.9912173 32.9099001,33.9319785 32.9833884,33.8640989 L36.1210784,30.9149515 C36.7820234,30.3726626 37.5523464,30.1014766 38.4332167,30.1014766 C39.0572827,30.1014766 39.5524518,30.2030883 39.9194436,30.4065609 L39.9744024,30.4065609 L50.5987252,36.203161 C51.3696778,36.6441705 51.8283276,37.2033254 51.9752143,37.8812904 Z" id="Path"></path>
            </g>
        </g>
    </g>
</svg>