<?xml version="1.0" encoding="UTF-8"?>
<svg width="58px" height="54px" viewBox="0 0 58 54" version="1.1" xmlns="http://www.w3.org/2000/svg" xmlns:xlink="http://www.w3.org/1999/xlink">
    <!-- Generator: Sketch 52.5 (67469) - http://www.bohemiancoding.com/sketch -->
    <title>icon_phone</title>
    <desc>Created with Sketch.</desc>
    <g id="Page-1" stroke="none" stroke-width="1" fill="none" fill-rule="evenodd">
        <g id="Artboard" transform="translate(-2991.000000, -775.000000)" fill="#F6C748">
            <g id="icon_phone" transform="translate(2991.000000, 775.000000)">
                <path d="M57.9723544,42.6164517 C58.0952558,43.4936622 57.8083186,44.2563727 57.1127467,44.9045832 L48.9464733,52.4551373 C48.57807,52.8364925 48.0971993,53.1609249 47.5036606,53.4275933 C46.9101219,53.6946354 46.3269171,53.8662453 45.7540458,53.9424228 C45.7131121,53.9424228 45.5900101,53.9522371 45.3852412,53.9713048 C45.1808738,53.9902792 44.9148047,54 44.587335,54 C43.8093941,54 42.5505825,53.8760595 40.8109001,53.6280851 C39.0712178,53.3801107 36.9427657,52.7698488 34.4255437,51.7975798 C31.9077198,50.8251239 29.0526944,49.366253 25.8599661,47.4215281 C22.6672378,45.4768966 19.2696401,42.8072228 15.6674745,39.4130674 C12.8021154,36.781716 10.4279607,34.2647712 8.54501046,31.8623265 C6.6620602,29.4596948 5.14751326,27.2383003 4.00136963,25.1980496 C2.85512567,23.1577989 1.99551794,21.3082258 1.42244612,19.6493304 C0.849374301,17.9904349 0.460504139,16.5603527 0.255835633,15.3590835 C0.0511671265,14.1578145 -0.0307002759,13.2139602 0.0102334253,12.5275206 C0.0511671265,11.8410812 0.0716339772,11.4597259 0.0716339772,11.3834549 C0.15350138,10.8495575 0.337703036,10.3061262 0.624238944,9.75316108 C0.910774853,9.20019594 1.25871132,8.75210349 1.66804832,8.40888375 L9.83432172,0.800846072 C10.4073935,0.266948691 11.0623328,0 11.7991394,0 C12.3312775,0 12.8020151,0.143008227 13.2113521,0.429024681 C13.6206891,0.715041135 13.9686255,1.06779476 14.2551615,1.48728556 L20.8250205,13.0995536 C21.1934239,13.709722 21.295758,14.3770938 21.1320233,15.1016688 C20.9682885,15.8262438 20.620352,16.4364122 20.0882139,16.9321741 L17.0795868,19.7351353 C16.9977195,19.8114064 16.9260855,19.9353468 16.8646849,20.1069567 C16.8032844,20.2785666 16.7725841,20.4215749 16.7725841,20.5359814 C16.9363189,21.3368275 17.3047222,22.2520801 17.8777941,23.2817393 C18.3689984,24.196992 19.126272,25.3124562 20.1496145,26.6281319 C21.172957,27.9438076 22.6261034,29.4596013 24.5090536,31.1757001 C26.3510702,32.9301213 27.9884182,34.2932794 29.4210977,35.2659223 C30.8534763,36.2380043 32.0511884,36.9533259 33.0131304,37.4109522 C33.9750724,37.8685785 34.711879,38.1450611 35.22345,38.2401195 L35.9907562,38.3832211 C36.0726236,38.3832211 36.205959,38.3545261 36.3899601,38.2974163 C36.5741618,38.2401195 36.7071963,38.1734758 36.789164,38.0971113 L40.2888951,34.7793204 C41.026103,34.1692454 41.8853094,33.8641612 42.8678186,33.8641612 C43.5638922,33.8641612 44.1161962,33.9784743 44.5255332,34.207381 L44.5868334,34.207381 L56.4370396,40.7285561 C57.2969483,41.2246918 57.8085192,41.8537411 57.9723544,42.6164517 Z" id="Path"></path>
            </g>
        </g>
    </g>
</svg>