<?xml version="1.0" encoding="UTF-8"?>
<svg width="29px" height="55px" viewBox="0 0 29 55" version="1.1" xmlns="http://www.w3.org/2000/svg" xmlns:xlink="http://www.w3.org/1999/xlink">
    <!-- Generator: Sketch 52.5 (67469) - http://www.bohemiancoding.com/sketch -->
    <title>facebook-logo</title>
    <desc>Created with Sketch.</desc>
    <g id="Page-1" stroke="none" stroke-width="1" fill="none" fill-rule="evenodd">
        <g id="Artboard" transform="translate(-691.000000, -10887.000000)" fill="#3B5998">
            <g id="facebook-logo" transform="translate(691.000000, 10887.000000)">
                <path d="M27.9079451,0.0114436711 L20.9521638,0 C13.137582,0 8.08745598,5.31272432 8.08745598,13.5355742 L8.08745598,19.7763803 L1.09372895,19.7763803 C0.489387904,19.7763803 0,20.2787574 0,20.8984322 L0,29.940649 C0,30.5603238 0.489945929,31.0621287 1.09372895,31.0621287 L8.08745598,31.0621287 L8.08745598,53.8785202 C8.08745598,54.498195 8.57684389,55 9.18118494,55 L18.3060094,55 C18.9103504,55 19.3997383,54.4976228 19.3997383,53.8785202 L19.3997383,31.0621287 L27.5770363,31.0621287 C28.1813774,31.0621287 28.6707653,30.5603238 28.6707653,29.940649 L28.6741134,20.8984322 C28.6741134,20.6008968 28.5586022,20.3159494 28.3538071,20.1053858 C28.1490119,19.8948223 27.8699994,19.7763803 27.5798264,19.7763803 L19.3997383,19.7763803 L19.3997383,14.4859711 C19.3997383,11.9431874 19.9906868,10.6523413 23.2210933,10.6523413 L27.9068291,10.6506247 C28.5106121,10.6506247 29,10.1482476 29,9.52914495 L29,1.13292344 C29,0.514393017 28.5111701,0.0125880382 27.9079451,0.0114436711 Z" id="Path"></path>
            </g>
        </g>
    </g>
</svg>