<?xml version="1.0" encoding="UTF-8"?>
<svg width="52px" height="36px" viewBox="0 0 52 36" version="1.1" xmlns="http://www.w3.org/2000/svg" xmlns:xlink="http://www.w3.org/1999/xlink">
    <!-- Generator: Sketch 52.5 (67469) - http://www.bohemiancoding.com/sketch -->
    <title>close-envelope</title>
    <desc>Created with Sketch.</desc>
    <g id="Page-1" stroke="none" stroke-width="1" fill="none" fill-rule="evenodd">
        <g id="Artboard" transform="translate(-170.000000, -10625.000000)" fill="#888888">
            <g id="close-envelope" transform="translate(170.000000, 10625.000000)">
                <path d="M25.5054994,25.3711249 L19.1554807,20 L1,35.0398583 C1.65993266,35.6315323 2.55084175,36 3.53340816,36 L47.4775907,36 C48.4564908,36 49.3437336,35.6315323 50,35.0398583 L31.8555181,20 L25.5054994,25.3711249 Z" id="Path"></path>
                <path d="M50,0.9485 C49.3401167,0.3605 48.4529403,0 47.4667814,0 L3.52588658,0 C2.5470597,0 1.65988329,0.364 1,0.9555 L25.496334,21 L50,0.9485 Z" id="Path"></path>
                <polygon id="Path" points="0 3 0 34 17 18.6753731"></polygon>
                <polygon id="Path" points="35 18.6809048 52 34 52 3"></polygon>
            </g>
        </g>
    </g>
</svg>