<?xml version="1.0" encoding="UTF-8"?>
<svg width="73px" height="61px" viewBox="0 0 73 61" version="1.1" xmlns="http://www.w3.org/2000/svg" xmlns:xlink="http://www.w3.org/1999/xlink">
    <!-- Generator: Sketch 52.5 (67469) - http://www.bohemiancoding.com/sketch -->
    <title>left-arrow</title>
    <desc>Created with Sketch.</desc>
    <g id="Page-1" stroke="none" stroke-width="1" fill="none" fill-rule="evenodd">
        <g id="Artboard" transform="translate(-1829.000000, -7352.000000)" fill="#FFFFFF">
            <g id="left-arrow" transform="translate(1865.500000, 7382.500000) rotate(180.000000) translate(-1865.500000, -7382.500000) translate(1829.000000, 7352.000000)">
                <path d="M68.89657,24.7408161 L69.0105212,24.7658937 L20.1622554,24.7658937 L35.5183659,9.28288128 C36.2703251,8.5269716 36.6828047,7.50297074 36.6828047,6.42821765 C36.6828047,5.35346456 36.2703251,4.33662872 35.5183659,3.57892779 L33.1289518,1.17386921 C32.3775861,0.417959535 31.3763587,3.41060513e-13 30.3086597,3.41060513e-13 C29.2403673,3.41060513e-13 28.2385463,0.41497411 27.4871806,1.17088378 L1.16386118,27.6510087 C0.409528006,28.4099038 -0.00295157847,29.4207688 1.59005631e-05,30.4961189 C-0.00295157847,31.57744 0.409528006,32.588902 1.16386118,33.346603 L27.4871806,59.8291162 C28.2385463,60.5844288 29.2397738,61 30.3086597,61 C31.3763587,61 32.3775861,60.5838317 33.1289518,59.8291162 L35.5183659,57.4240576 C36.2703251,56.6693421 36.6828047,55.6614626 36.6828047,54.5867095 C36.6828047,53.5125535 36.2703251,52.5578145 35.5183659,51.8025019 L19.9889546,36.2329121 L68.9511716,36.2329121 C71.1512606,36.2329121 73,34.3252254 73,32.1130253 L73,28.7114317 C73,26.4992316 71.096659,24.7408161 68.89657,24.7408161 Z" id="Path"></path>
            </g>
        </g>
    </g>
</svg>