<?xml version="1.0" encoding="UTF-8"?>
<svg width="59px" height="59px" viewBox="0 0 59 59" version="1.1" xmlns="http://www.w3.org/2000/svg" xmlns:xlink="http://www.w3.org/1999/xlink">
    <!-- Generator: Sketch 52.5 (67469) - http://www.bohemiancoding.com/sketch -->
    <title>Shape</title>
    <desc>Created with Sketch.</desc>
    <g id="Page-1" stroke="none" stroke-width="1" fill="none" fill-rule="evenodd">
        <g id="Artboard" transform="translate(-2024.000000, -377.000000)" fill="#AAAAAA" fill-rule="nonzero">
            <g id="magnifying-glass" transform="translate(2024.000000, 377.000000)">
                <path d="M58.4896873,55.9911308 L44.1485917,41.6532151 C47.9955644,37.2314856 50.324684,31.462306 50.324684,25.1567627 C50.324684,11.2767184 39.0323797,0 25.162342,0 C11.2792193,0 0,11.2898004 0,25.1567627 C0,39.0237251 11.2923043,50.3135255 25.162342,50.3135255 C31.4692837,50.3135255 37.2397427,47.9849224 41.6624529,44.1388027 L56.0035485,58.4767184 C56.3437569,58.8168514 56.8017299,59 57.2466179,59 C57.6915059,59 58.1494788,58.8299335 58.4896873,58.4767184 C59.1701042,57.7964523 59.1701042,56.6713969 58.4896873,55.9911308 Z M3.51984919,25.1567627 C3.51984919,13.2259424 13.2288756,3.53215078 25.149257,3.53215078 C37.0827234,3.53215078 46.7786649,13.2390244 46.7786649,25.1567627 C46.7786649,37.0745011 37.0827234,46.7944568 25.149257,46.7944568 C13.2288756,46.7944568 3.51984919,37.0875831 3.51984919,25.1567627 Z" id="Shape"></path>
            </g>
        </g>
    </g>
</svg>