<?xml version="1.0" encoding="UTF-8"?>
<svg width="30px" height="21px" viewBox="0 0 30 21" version="1.1" xmlns="http://www.w3.org/2000/svg" xmlns:xlink="http://www.w3.org/1999/xlink">
    <!-- Generator: Sketch 52.5 (67469) - http://www.bohemiancoding.com/sketch -->
    <title>Shape</title>
    <desc>Created with Sketch.</desc>
    <g id="Page-1" stroke="none" stroke-width="1" fill="none" fill-rule="evenodd">
        <g id="Desktop" transform="translate(-492.000000, -2553.000000)" fill="#EEEEEE" fill-rule="nonzero">
            <g id="Group-21" transform="translate(106.000000, 2553.000000)">
                <g id="Group-19" transform="translate(386.000000, 0.000000)">
                    <g id="testimonial_quotes_icon">
                        <path d="M6.58536586,7.63636364 C10.2062049,7.63636364 13.1414634,10.6279687 13.1414634,14.3181818 C13.1414634,18.0083949 10.2062049,21 6.58536586,21 C2.96452682,21 0.0292682927,18.0083949 0.0292682927,14.3181818 L0,13.3636364 C0,5.98309092 5.87051707,0 13.1121951,0 L13.1121951,3.81818181 C10.6105171,3.81818181 8.25851707,4.81108807 6.48954145,6.61398579 C6.14903414,6.96108238 5.83826341,7.33037215 5.5579317,7.71827557 C5.89270243,7.66458238 6.23578536,7.63636364 6.58536586,7.63636364 Z M23.4439025,7.63636364 C27.064683,7.63636364 30,10.6279687 30,14.3181818 C30,18.0083949 27.064683,21 23.4439025,21 C19.823122,21 16.8878049,18.0083949 16.8878049,14.3181818 L16.8585366,13.3636364 C16.8585366,5.98309092 22.7289952,0 29.9707318,0 L29.9707318,3.81818181 C27.4691123,3.81818181 25.1169952,4.81108807 23.348078,6.61398579 C23.0075123,6.96108238 22.6967415,7.33037215 22.4164098,7.71827557 C22.7511805,7.66458238 23.0942634,7.63636364 23.4439025,7.63636364 Z" id="Shape"></path>
                    </g>
                </g>
            </g>
        </g>
    </g>
</svg>