<?xml version="1.0" encoding="UTF-8"?>
<svg width="295px" height="117px" viewBox="0 0 295 117" version="1.1" xmlns="http://www.w3.org/2000/svg" xmlns:xlink="http://www.w3.org/1999/xlink">
    <!-- Generator: Sketch 52.5 (67469) - http://www.bohemiancoding.com/sketch -->
    <title>Travio_logo_2</title>
    <desc>Created with Sketch.</desc>
    <defs>
        <radialGradient cx="8.11234341%" cy="3.07230794%" fx="8.11234341%" fy="3.07230794%" r="81.2140912%" gradientTransform="translate(0.081123,0.030723),scale(0.573515,1.000000),translate(-0.081123,-0.030723)" id="radialGradient-1">
            <stop stop-color="#FFD000" offset="0%"></stop>
            <stop stop-color="#F58A1F" offset="99.82%"></stop>
        </radialGradient>
        <linearGradient x1="47.5818346%" y1="35.4834186%" x2="55.1170915%" y2="93.1356212%" id="linearGradient-2">
            <stop stop-color="#FFFFFF" offset="0%"></stop>
            <stop stop-color="#A6A6A6" offset="100%"></stop>
        </linearGradient>
        <linearGradient x1="44.8645243%" y1="77.6386286%" x2="54.0428481%" y2="11.0042994%" id="linearGradient-3">
            <stop stop-color="#FFFFFF" offset="0%"></stop>
            <stop stop-color="#A6A6A6" offset="100%"></stop>
        </linearGradient>
        <linearGradient x1="48.4591636%" y1="34.1302829%" x2="55.8349705%" y2="89.2114914%" id="linearGradient-4">
            <stop stop-color="#FFFFFF" offset="0%"></stop>
            <stop stop-color="#A6A6A6" offset="100%"></stop>
        </linearGradient>
        <linearGradient x1="54.8205577%" y1="58.4674934%" x2="33.8651994%" y2="11.7587373%" id="linearGradient-5">
            <stop stop-color="#FFFFFF" offset="0%"></stop>
            <stop stop-color="#A6A6A6" offset="100%"></stop>
        </linearGradient>
    </defs>
    <g id="Page-1" stroke="none" stroke-width="1" fill="none" fill-rule="evenodd">
        <g id="Artboard" transform="translate(-184.000000, -10107.000000)">
            <g id="Footer" transform="translate(0.000000, 9999.000000)">
                <g id="Travio_logo_2" transform="translate(184.000000, 108.000000)">
                    <text id="TM" fill="#FFFFFF" font-family="Helvetica" font-size="6.2598" font-weight="normal">
                        <tspan x="148" y="93.4864865">TM</tspan>
                    </text>
                    <g id="Group">
                        <g>
                            <g fill-rule="nonzero" id="Shape">
                                <path d="M133.031771,70.2924102 C138.307377,64.352578 143.002242,55.3102627 145.641368,47.2188203 C148.256682,39.1842915 150.27935,30.2682966 150.233049,21.6216 C150.19204,14.5018525 148.810964,5.48313559 141.949238,1.91007458 C134.595404,-1.91979153 125.245359,5.11805593 122.099574,13.3580288 C119.15222,21.0760627 118.301614,32.4226831 118.892937,40.8195153 C119.501457,49.4814814 121.173565,59.6509627 123.917197,67.9298034 C123.276928,68.5003271 122.620785,69.0583576 121.935538,69.584461 C116.198251,73.9959559 109.479395,76.1295203 102.769798,75.9782136 C105.362623,73.9570881 107.663094,71.4251288 109.437063,68.3323627 C113.117287,61.9205644 114.325067,53.7958068 112.240224,46.7052102 C107.595628,30.8998983 88.4947085,28.224961 78.6684305,37.8419644 C70.2338117,46.0944305 70.7735426,62.0330034 76.8547758,71.9165288 C73.2102691,71.222461 69.5684081,70.3479356 65.8683408,69.8523712 C65.8074888,69.8454305 65.743991,69.8426542 65.6818161,69.8315492 C65.3405157,67.7840492 64.9806951,65.6962932 64.7412556,63.6710034 C63.2675785,51.2138746 62.8535202,40.4030746 64.7862332,28.449839 C65.1619283,26.1261 63.0109417,23.9439508 60.891704,23.9134119 C58.3306278,23.8800966 56.6783632,26.0386475 56.2391704,28.4317932 C53.9730942,40.7306746 54.9996413,53.7361169 56.9085426,66.0377746 C57.08713,67.1871508 57.2723318,68.3448559 57.4707623,69.4956203 C53.648991,69.6316576 49.7981166,70.1230576 46.009417,70.8032441 C43.2287444,71.3001966 40.4414574,71.9429034 37.6740135,72.7438576 C36.7043498,63.9014339 36.0257175,54.9743339 34.6935874,46.3179203 C33.4937444,38.5304797 30.9591256,28.8204712 22.7904036,27.3087915 C13.13213,25.522261 5.48065022,35.3336034 1.08078475,45.0713746 C-1.43266816,50.6322458 6.06139013,53.7527746 8.6608296,48.2377119 C10.9692377,43.3431458 17.5465471,31.5231712 22.8486099,38.0904407 C24.7138565,40.3989102 25.4586323,43.7401525 26.0486323,46.744078 C26.9336323,51.2513542 27.5606726,55.8571881 28.1242152,60.4560814 C28.736704,65.458922 29.3055381,70.4700915 29.9643274,75.4451695 C22.2480269,78.3671949 13.6758296,84.2834288 7.79567265,91.0922339 C6.24394619,92.8884814 5.50181614,95.4482034 6.86304933,97.4804339 C7.98616592,99.1545254 10.7906502,99.8555339 12.3357623,98.0592864 C17.3970628,92.1902492 24.6490359,86.9653068 31.2607399,84.2653831 C32.836278,95.2205492 35.9397309,105.391419 39.8752691,114.884878 C41.9151345,119.804431 48.2847534,114.884878 46.1205381,109.895919 C42.4786771,101.503251 39.916278,90.9631373 38.766704,81.5043814 C43.3213453,80.1453966 47.9672646,79.2903051 52.5602691,78.8336085 C54.8117937,78.6073424 57.0514126,78.5698627 59.2791256,78.6531508 C61.0610314,86.6751864 63.3046188,94.5361983 65.8167489,102.257008 C66.5390359,104.478025 69.2482735,105.004129 70.830426,103.936653 C72.7697534,102.630417 73.0607848,100.144266 72.366278,97.8816051 C70.5169058,91.8668136 68.8963901,85.7159847 67.5417713,79.4832559 C72.3874439,80.2286847 77.1973991,81.2933847 81.8896188,82.2872898 C96.434574,85.3578458 113.871323,86.5433136 126.937309,76.2655576 C129.170314,81.766739 131.809439,87.0180559 134.846749,91.9153983 C137.665785,96.4615424 143.875336,91.7599271 141.072175,87.1082847 C137.901256,81.8652966 135.202601,76.2197492 133.031771,70.2924102 Z M89.9591256,70.2646475 C83.2746637,68.9542475 78.7702915,61.4638678 80.1831166,53.2391644 C81.5959417,45.0130729 88.6719731,39.2689678 95.7030269,40.7154051 C102.732758,42.1590661 106.772803,50.1297407 105.013386,58.2211831 C103.256614,66.3140136 96.6449103,71.5764356 89.9591256,70.2646475 Z M128.041906,50.4878797 C127.113251,43.9206102 126.756076,37.213139 127.12648,30.5528644 C127.471749,24.3381814 128.560471,16.3230864 133.089978,11.6742203 C137.741188,6.8990339 140.594619,12.1628441 141.363206,16.8741763 C142.515426,23.9564441 141.306323,31.4093441 139.672578,38.3097661 C137.766323,46.3803864 134.673453,54.3399559 130.109552,60.8739102 C129.23778,57.4715898 128.537982,54.002639 128.041906,50.4878797 Z" fill="#FFFFFF"></path>
                                <path d="M174.276211,73.8613068 C172.122578,70.7338373 170.277175,67.260722 168.771749,63.5918797 C167.81796,61.2653644 166.94222,58.8291864 166.180247,56.3360949 C172.670247,50.2727186 181.197466,45.2448915 188.901861,42.4589034 C193.80574,40.6904186 190.226054,32.5323458 185.286457,34.3619085 C178.047713,37.039622 170.18722,41.553839 163.927399,46.9689559 C162.874395,40.9055797 162.589978,34.6992254 163.46704,28.7746627 C163.818924,26.4009508 161.403363,24.2576695 159.338363,24.2146373 C156.801099,24.1618881 155.400179,26.2107763 155.089305,28.5997576 C154.016457,36.7703237 155.05491,45.2907 157.114619,53.3876949 C152.022892,58.7639441 147.595247,64.8578593 143.891211,71.5070288 C141.203139,76.3363525 147.825426,80.6131983 150.535987,75.8782678 C153.273004,71.0989169 156.425404,66.6666 159.952175,62.6423949 C160.296121,63.6043729 160.645359,64.5607983 161.010471,65.499178 C165.193386,76.2836034 172.076278,86.8195525 180.266166,91.5114508 C191.619036,98.0190305 203.24574,97.6345169 216.176794,95.2955085 C229.441211,92.8940339 243.920022,89.7193678 257.468857,92.495639 C268.817758,94.8179898 280.195762,100.276139 288.750762,110.126349 C290.266771,111.874012 292.97204,111.168839 294.099126,109.480866 C295.473587,107.425037 294.752623,104.738995 293.236614,103.128758 C279.322668,88.3520542 262.286749,83.0077322 243.815516,82.0985034 C237.813655,81.8056068 231.814439,83.5629864 225.936928,84.6957051 C227.947691,81.7126017 229.506031,78.1797966 230.356637,74.1208881 C232.847601,62.223178 227.352399,50.2282983 218.109507,46.1874356 C209.078274,42.2368017 198.10639,45.679378 193.088744,55.9321475 C188.266883,65.7795814 191.148094,78.6725847 197.946323,86.2171017 C198.824709,87.192961 199.746749,88.0647102 200.697892,88.8462305 C196.190874,88.964222 191.652108,88.011961 187.473161,85.9172644 C182.311323,83.3242271 177.865157,79.0737559 174.276211,73.8613068 Z M211.546749,83.5310593 C205.255179,83.5310593 199.930628,77.1303661 199.524507,68.9542475 C199.117063,60.7809051 204.097668,53.9013051 210.776839,53.8832593 C217.454686,53.8638254 222.986928,60.7364847 223.006771,68.9264847 C223.025291,77.1234254 217.840964,83.5310593 211.546749,83.5310593 Z" fill="url(#radialGradient-1)"></path>
                            </g>
                            <path d="M65.683139,69.8329373 C65.2928924,68.1560695 63.9779596,55.9835085 63.7424888,53.0059576 L55.4586771,54.3496729 C55.4917489,54.5648339 56.3013453,64.4636288 57.4707623,69.4983966" id="Path" fill="url(#linearGradient-2)"></path>
                            <path d="M59.2830942,78.6823017 C59.5847085,80.4813254 62.0148206,89.4583983 62.448722,91.2740797 L69.7800673,88.8517831 C69.7469955,88.6324576 67.7388789,80.6367966 67.5417713,79.4874203" id="Path" fill="url(#linearGradient-3)"></path>
                            <path d="M37.6740135,72.7466339 C37.5099776,70.9170712 36.4768161,61.312561 36.2969058,59.5524051 L28.2472422,60.8544763 C28.2803139,61.0696373 29.7658969,74.2999576 29.9643274,75.4493339" id="Path" fill="url(#linearGradient-4)"></path>
                            <path d="M31.2673543,84.2667712 C31.6298206,86.9444847 33.020157,94.8693508 34.6539013,99.9763017 L41.8463453,97.5540051 C41.8119507,97.3374559 39.9347982,90.929822 38.7653812,81.5071576" id="Path" fill="url(#linearGradient-5)"></path>
                        </g>
                    </g>
                </g>
            </g>
        </g>
    </g>
</svg>