<?xml version="1.0" encoding="UTF-8"?>
<svg width="91px" height="91px" viewBox="0 0 91 91" version="1.1" xmlns="http://www.w3.org/2000/svg" xmlns:xlink="http://www.w3.org/1999/xlink">
    <!-- Generator: Sketch 52.5 (67469) - http://www.bohemiancoding.com/sketch -->
    <title>Group 2</title>
    <desc>Created with Sketch.</desc>
    <defs>
        <circle id="path-1" cx="45.5" cy="45.5" r="45.5"></circle>
    </defs>
    <g id="Page-1" stroke="none" stroke-width="1" fill="none" fill-rule="evenodd">
        <g id="Artboard" transform="translate(-470.000000, -273.000000)">
            <g id="Group-2" transform="translate(470.000000, 273.000000)">
                <g id="Rectangle">
                    <mask id="mask-2" fill="white">
                        <use xlink:href="#path-1"></use>
                    </mask>
                    <use id="Mask" fill="#FEF3E2" xlink:href="#path-1"></use>
                    <polygon fill="#F7E5CA" mask="url(#mask-2)" transform="translate(64.915982, 61.598779) rotate(-6.000000) translate(-64.915982, -61.598779) " points="23.9845821 51.1643428 71.4671579 36.5475511 105.847381 72.7877196 68.7873422 86.6500073"></polygon>
                </g>
                <path d="M23.4915667,36 L68.5084764,36 C69.0607612,36 69.5084764,36.4477153 69.5084764,37 C69.5084764,37.1302636 69.4830258,37.2592722 69.4335548,37.3797762 L66.05057,45.6202238 C65.9506745,45.8635543 65.9506745,46.1364457 66.05057,46.3797762 L69.4335548,54.6202238 C69.6432994,55.1311304 69.3991593,55.7153338 68.8882526,55.9250784 C68.7677486,55.9745494 68.63874,56 68.5084764,56 L23.4915667,56 C22.939282,56 22.4915667,55.5522847 22.4915667,55 C22.4915667,54.8697274 22.5170208,54.74071 22.5664985,54.620199 L25.9497205,46.379801 C26.0496295,46.136456 26.0496295,45.863544 25.9497205,45.620199 L22.5664985,37.379801 C22.3567402,36.8688999 22.6008647,36.2846901 23.1117657,36.0749318 C23.2322767,36.0254541 23.3612942,36 23.4915667,36 Z" id="Rectangle" fill="#333333"></path>
                <circle id="Oval" fill="#FFE5A4" cx="46" cy="46" r="18"></circle>
                <circle id="Oval" fill="#F9C747" cx="46" cy="46" r="14"></circle>
                <polygon id="Star" fill="#333333" points="46.5 50.25 40.9160401 53.1856614 41.9824815 46.9678307 37.4649631 42.5643386 43.7080201 41.6571693 46.5 36 49.2919799 41.6571693 55.5350369 42.5643386 51.0175185 46.9678307 52.0839599 53.1856614"></polygon>
            </g>
        </g>
    </g>
</svg>