<?xml version="1.0" encoding="UTF-8"?>
<svg width="91px" height="91px" viewBox="0 0 91 91" version="1.1" xmlns="http://www.w3.org/2000/svg" xmlns:xlink="http://www.w3.org/1999/xlink">
    <!-- Generator: Sketch 52.5 (67469) - http://www.bohemiancoding.com/sketch -->
    <title>Group 2</title>
    <desc>Created with Sketch.</desc>
    <defs>
        <circle id="path-1" cx="45.5" cy="45.5" r="45.5"></circle>
    </defs>
    <g id="Page-1" stroke="none" stroke-width="1" fill="none" fill-rule="evenodd">
        <g id="Artboard" transform="translate(-350.000000, -273.000000)">
            <g id="Group-2" transform="translate(350.000000, 273.000000)">
                <g id="Rectangle">
                    <mask id="mask-2" fill="white">
                        <use xlink:href="#path-1"></use>
                    </mask>
                    <use id="Mask" fill="#FEF3E2" xlink:href="#path-1"></use>
                    <polygon fill="#F7E5CA" mask="url(#mask-2)" points="20.8967652 56.7069777 71.958144 30 103.815253 54.0886883 67.8032206 89.5"></polygon>
                </g>
                <path d="M21,29 L71,29 C71.5522847,29 72,29.4477153 72,30 L72,56 C72,56.5522847 71.5522847,57 71,57 L59.5221531,57.0000225 C58.9698808,57.0000225 58.5221756,57.4477277 58.5221756,58 C58.5221756,58.0507334 58.5260365,58.1013933 58.5337249,58.1515408 C58.9270758,60.7171803 58.8631303,62 58.3418883,62 C57.7707134,62 56.2642085,60.4596297 53.8223735,57.3788892 L53.8224111,57.3788594 C53.6327193,57.1395348 53.3440726,57 53.0386888,57 L21,57 C20.4477153,57 20,56.5522847 20,56 L20,30 C20,29.4477153 20.4477153,29 21,29 Z" id="Rectangle" fill="#F9C747"></path>
                <circle id="Oval" fill="#333333" cx="34" cy="43" r="4"></circle>
                <circle id="Oval" fill="#333333" cx="46" cy="43" r="4"></circle>
                <circle id="Oval" fill="#333333" cx="58" cy="43" r="4"></circle>
            </g>
        </g>
    </g>
</svg>