<?xml version="1.0" encoding="UTF-8"?>
<svg width="91px" height="91px" viewBox="0 0 91 91" version="1.1" xmlns="http://www.w3.org/2000/svg" xmlns:xlink="http://www.w3.org/1999/xlink">
    <!-- Generator: Sketch 52.5 (67469) - http://www.bohemiancoding.com/sketch -->
    <title>Group 2</title>
    <desc>Created with Sketch.</desc>
    <defs>
        <circle id="path-1" cx="45.5" cy="45.5" r="45.5"></circle>
    </defs>
    <g id="Page-1" stroke="none" stroke-width="1" fill="none" fill-rule="evenodd">
        <g id="Artboard" transform="translate(-600.000000, -273.000000)">
            <g id="Group-2" transform="translate(600.000000, 273.000000)">
                <g id="Rectangle">
                    <mask id="mask-2" fill="white">
                        <use xlink:href="#path-1"></use>
                    </mask>
                    <use id="Mask" fill="#FEF3E2" xlink:href="#path-1"></use>
                    <polygon fill="#F7E5CA" mask="url(#mask-2)" transform="translate(73.105419, 56.906946) rotate(-6.000000) translate(-73.105419, -56.906946) " points="36.5390146 61.6148027 65.487607 28.0456164 109.671824 67.8823545 74.2269938 85.7682756"></polygon>
                </g>
                <g id="shield-(1)" transform="translate(26.000000, 22.000000)">
                    <circle id="Oval" fill="#FFE5A4" cx="19.5" cy="23.5" r="12.5"></circle>
                    <path d="M38.9545532,12.7523008 L38.9531556,12.7157255 C38.9332389,12.2642721 38.9199611,11.7866425 38.9119246,11.2552256 C38.8745371,8.66376175 36.867146,6.52016542 34.3415719,6.37529876 C29.0758826,6.07373218 25.0023986,4.31166589 21.5218723,0.830204351 L21.492172,0.801159233 C20.3569216,-0.267053078 18.644437,-0.267053078 17.5088371,0.801159233 L17.4791368,0.830204351 C13.9986106,4.31166589 9.92512651,6.07373218 4.65943734,6.37565731 C2.13421263,6.52016542 0.126472026,8.66376175 0.0890846511,11.2555842 C0.0813974689,11.7834152 0.0677702481,12.2610449 0.0478535959,12.7157255 L0.0457571486,12.8007091 C-0.0566215246,18.3110212 -0.183808799,25.1688802 2.05175061,31.3934852 C3.28099383,34.8164982 5.14267878,37.7920021 7.58474259,40.2378822 C10.3660887,43.0233383 14.009093,45.2347064 18.4124252,46.8103107 C18.5556855,46.8615878 18.7045365,46.9031831 18.8561827,46.9343797 C19.0700249,46.9781266 19.2852647,47 19.5005046,47 C19.7157444,47 19.9313337,46.9781266 20.1448265,46.9343797 C20.2964728,46.9031831 20.4463719,46.8612292 20.5903311,46.8095935 C24.988422,45.2311206 28.6275827,43.0186767 31.406483,40.2335791 C33.8474986,37.786982 35.7091835,34.8107609 36.939475,31.3870308 C39.1834203,25.1437795 39.0565825,18.2730117 38.9545532,12.7523008 Z M19.4998058,35.2138058 C13.2061366,35.2138058 8.08615363,29.9595205 8.08615363,23.5007619 C8.08615363,17.0420036 13.2061366,11.7877182 19.4998058,11.7877182 C25.7931255,11.7877182 30.913458,17.0420036 30.913458,23.5007619 C30.913458,29.9595205 25.7931255,35.2138058 19.4998058,35.2138058 Z" id="Shape" fill="#F9C747" fill-rule="nonzero"></path>
                    <path d="M19.5001702,15 C14.8130619,15 11,18.8130619 11,23.4998298 C11,28.1869381 14.8130619,32 19.5001702,32 C24.1869381,32 28,28.1869381 28,23.4998298 C28,18.8130619 24.1869381,15 19.5001702,15 Z M24.6177822,21.3094107 L18.5474245,27.6035181 C18.2926126,27.8677221 17.9584053,28 17.6245374,28 C17.2906694,28 16.9568014,27.8680739 16.7019895,27.6035181 L14.3822178,25.198241 C13.8725941,24.6701847 13.8725941,23.8135444 14.3822178,23.2851364 C14.8915022,22.7567282 15.7176897,22.7567282 16.2273134,23.2851364 L17.6245374,24.733861 L22.7726866,19.396306 C23.281971,18.867898 24.1081586,18.867898 24.6177822,19.396306 C25.1274059,19.9243623 25.1274059,20.7810026 24.6177822,21.3094107 Z" id="Shape" fill="#333333" fill-rule="nonzero"></path>
                </g>
            </g>
        </g>
    </g>
</svg>