<?xml version="1.0" encoding="UTF-8"?>
<svg width="70px" height="70px" viewBox="0 0 70 70" version="1.1" xmlns="http://www.w3.org/2000/svg" xmlns:xlink="http://www.w3.org/1999/xlink">
    <!-- Generator: Sketch 52.5 (67469) - http://www.bohemiancoding.com/sketch -->
    <title>facebook (2)</title>
    <desc>Created with Sketch.</desc>
    <g id="Page-1" stroke="none" stroke-width="1" fill="none" fill-rule="evenodd">
        <g id="Icons" transform="translate(-76.000000, -80.000000)" fill="#555555">
            <g id="facebook-(2)" transform="translate(76.000000, 80.000000)">
                <path d="M60.5671196,0 L9.43270913,0 C4.2232714,0 0,4.22306917 0,9.4326399 L0,60.5670176 C0,65.7765884 4.22310016,69.9996575 9.43270913,69.9996575 L34.6519564,69.9996575 L34.6949374,44.9855671 L28.1962401,44.9855671 C27.3516885,44.9855671 26.6662182,44.3026703 26.6629646,43.458125 L26.6317991,35.3950458 C26.6285456,34.5458771 27.3160708,33.8557883 28.1652458,33.8557883 L34.6521276,33.8557883 L34.6521276,26.0648062 C34.6521276,17.0234449 40.1740768,12.1003552 48.2396125,12.1003552 L54.858006,12.1003552 C55.7047837,12.1003552 56.3914527,12.786848 56.3914527,13.6337906 L56.3914527,20.4326203 C56.3914527,21.2792205 55.7052974,21.965542 54.8588622,21.9660558 L50.7972406,21.9679394 C46.4109495,21.9679394 45.5616033,24.0522471 45.5616033,27.1110698 L45.5616033,33.8559596 L55.1997994,33.8559596 C56.118155,33.8559596 56.8306812,34.6578667 56.722458,35.5698797 L55.7667723,43.6329589 C55.6753306,44.4045569 55.0210257,44.9859096 54.2441137,44.9859096 L45.6045843,44.9859096 L45.5616033,70 L60.5674621,70 C65.7768998,70 70,65.7769308 70,60.5675313 L70,9.4326399 C69.9998288,4.22306917 65.7767286,0 60.5671196,0 Z" id="Path"></path>
            </g>
        </g>
    </g>
</svg>