<?xml version="1.0" encoding="UTF-8"?>
<svg width="70px" height="59px" viewBox="0 0 70 59" version="1.1" xmlns="http://www.w3.org/2000/svg" xmlns:xlink="http://www.w3.org/1999/xlink">
    <!-- Generator: Sketch 52.5 (67469) - http://www.bohemiancoding.com/sketch -->
    <title>twitter</title>
    <desc>Created with Sketch.</desc>
    <g id="Page-1" stroke="none" stroke-width="1" fill="none" fill-rule="evenodd">
        <g id="Icons" transform="translate(-206.000000, -84.000000)" fill="#555555">
            <g id="twitter" transform="translate(206.000000, 84.000000)">
                <path d="M68.8866965,6.80822474 C67.3314061,7.5014152 65.716894,8.04828261 64.0602272,8.44419539 C65.8856839,6.70066958 67.2581898,4.51988999 68.032507,2.0857468 C68.2535211,1.39084094 67.5025853,0.789938646 66.8782846,1.16200747 C64.5735942,2.53603756 62.0910687,3.56681743 59.4994868,4.2260431 C59.3491289,4.26429637 59.1939924,4.28368032 59.0383439,4.28368032 C58.5662783,4.28368032 58.1073542,4.10750942 57.746393,3.7877601 C54.9890932,1.34521148 51.4427987,0 47.7609945,0 C46.1678159,0 44.5592773,0.249589735 42.9799227,0.741907632 C38.0865518,2.26740695 34.3108806,6.32448381 33.1262794,11.3300017 C32.6818619,13.2074997 32.5615415,15.0867131 32.7683902,16.9153225 C32.7921129,17.1254582 32.6932966,17.2721243 32.6323684,17.3409116 C32.52536,17.4615037 32.3736369,17.5306341 32.216111,17.5306341 C32.1985323,17.5306341 32.1804416,17.5297764 32.1625215,17.528061 C21.4511047,16.5278151 11.792022,11.3409802 4.96447938,2.92320184 C4.61631822,2.49383888 3.94866801,2.54650146 3.67116309,3.02492467 C2.33415599,5.33041335 1.62759365,7.96731604 1.62759365,10.6505343 C1.62759365,14.7626753 3.27128977,18.6379205 6.12638189,21.4630018 C4.92573791,21.1768742 3.76366473,20.7262404 2.68419449,20.1236227 C2.16195276,19.8320058 1.51939063,20.2068193 1.51205194,20.8072069 C1.43729969,26.9160658 4.99571148,32.3518043 10.3263318,34.7994991 C10.2189821,34.8020722 10.1116324,34.803273 10.0041121,34.803273 C9.15913861,34.803273 8.30358377,34.7212772 7.46151165,34.5595156 C6.87339237,34.4466427 6.37931073,35.0074048 6.56192467,35.5805177 C8.29214907,41.0099093 12.9431725,45.011922 18.5089723,45.9205659 C13.889693,49.0372641 8.51043246,50.6812971 2.91169391,50.6812971 L1.16628012,50.6802678 C0.628507674,50.6802678 0.1736795,51.0326096 0.0366337126,51.5561477 C-0.0983640681,52.0717949 0.150298089,52.6157462 0.608880942,52.8838622 C6.91776585,56.5741879 14.1139497,58.5245902 21.4226032,58.5245902 C27.8200644,58.5245902 33.8043403,57.248509 39.2093715,54.732027 C44.1643533,52.4249944 48.5429918,49.1271507 52.2236013,44.9300977 C55.652306,41.0203732 58.3334882,36.5070017 60.1923957,31.51555 C61.9644336,26.7575635 62.9010554,21.6806852 62.9010554,16.8336697 L62.9010554,16.6027778 C62.9008847,15.8245038 63.2510939,15.0922024 63.8620826,14.5937091 C66.1805969,12.7016302 68.1995903,10.4743634 69.8627424,7.97383453 C70.3018692,7.31357963 69.6093016,6.48607386 68.8866965,6.80822474 Z" id="Path"></path>
            </g>
        </g>
    </g>
</svg>