<?xml version="1.0" encoding="UTF-8"?>
<svg width="227px" height="227px" viewBox="0 0 227 227" version="1.1" xmlns="http://www.w3.org/2000/svg" xmlns:xlink="http://www.w3.org/1999/xlink">
    <!-- Generator: Sketch 52.5 (67469) - http://www.bohemiancoding.com/sketch -->
    <title>instagram</title>
    <desc>Created with Sketch.</desc>
    <g id="Page-1" stroke="none" stroke-width="1" fill="none" fill-rule="evenodd">
        <g id="Artboard" transform="translate(-152.000000, -463.000000)" fill="#EEEEEE">
            <g id="instagram" transform="translate(152.000000, 463.000000)">
                <path d="M159.375476,0 L67.6245241,0 C30.3362043,0 0,30.3362043 0,67.6245241 L0,159.375476 C0,196.663796 30.3362043,227 67.6245241,227 L159.375476,227 C196.663796,227 227,196.663796 227,159.375476 L227,67.6245241 C226.999588,30.3362043 196.663384,0 159.375476,0 Z M204.163808,159.375476 C204.163808,184.111182 184.111182,204.163808 159.375476,204.163808 L67.6245241,204.163808 C42.8888181,204.163808 22.8361916,184.111182 22.8361916,159.375476 L22.8361916,67.6245241 C22.8361916,42.8884062 42.8888181,22.8361916 67.6245241,22.8361916 L159.375476,22.8361916 C184.111182,22.8361916 204.163808,42.8884062 204.163808,67.6245241 L204.163808,159.375476 Z" id="Shape" fill-rule="nonzero"></path>
                <path d="M113.5,55 C81.2430482,55 55,81.2431403 55,113.499795 C55,145.756449 81.2430482,172 113.5,172 C145.756952,172 172,145.75686 172,113.499795 C172,81.2427298 145.756952,55 113.5,55 Z M113.5,149.245929 C93.758092,149.245929 77.7544012,133.242182 77.7544012,113.500205 C77.7544012,93.758228 93.7585025,77.7544811 113.5,77.7544811 C133.241908,77.7544811 149.245599,93.758228 149.245599,113.500205 C149.245599,133.241772 133.241498,149.245929 113.5,149.245929 Z" id="Shape" fill-rule="nonzero"></path>
                <circle id="Oval" cx="172" cy="55" r="14"></circle>
            </g>
        </g>
    </g>
</svg>