<?xml version="1.0" encoding="UTF-8"?>
<svg width="55px" height="38px" viewBox="0 0 55 38" version="1.1" xmlns="http://www.w3.org/2000/svg" xmlns:xlink="http://www.w3.org/1999/xlink">
    <!-- Generator: Sketch 52.5 (67469) - http://www.bohemiancoding.com/sketch -->
    <title>quote_blue</title>
    <desc>Created with Sketch.</desc>
    <g id="Page-1" stroke="none" stroke-width="1" fill="none" fill-rule="evenodd">
        <g id="Artboard" transform="translate(-693.000000, -3531.000000)" fill="#333333" fill-rule="nonzero">
            <g id="quote_blue" transform="translate(693.000000, 3531.000000)">
                <path d="M12.1269488,13.8181818 C18.7947225,13.8181818 24.2,19.2315625 24.2,25.9090909 C24.2,32.5866193 18.7947225,38 12.1269488,38 C5.45917506,38 0.0538975501,32.5866193 0.0538975501,25.9090909 L0,24.1818182 C0,10.8265455 10.810555,0 24.1461024,0 L24.1461024,6.90909091 C19.5392633,6.90909091 15.2080561,8.70577841 11.9504882,11.9681648 C11.3234441,12.5962443 10.7511599,13.264483 10.2349292,13.9664034 C10.8514094,13.8692443 11.4831964,13.8181818 12.1269488,13.8181818 Z M42.9269488,13.8181818 C49.5946147,13.8181818 55,19.2315625 55,25.9090909 C55,32.5866193 49.5946147,38 42.9269488,38 C36.2592829,38 30.8538976,32.5866193 30.8538976,25.9090909 L30.8,24.1818182 C30.8,10.8265455 41.6104472,0 54.9461024,0 L54.9461024,6.90909091 C50.339371,6.90909091 46.0079483,8.70577841 42.7504882,11.9681648 C42.1233363,12.5962443 41.5510521,13.264483 41.0348214,13.9664034 C41.6513016,13.8692443 42.2830886,13.8181818 42.9269488,13.8181818 Z" id="Shape"></path>
            </g>
        </g>
    </g>
</svg>